<?xml version="1.0" encoding="UTF-8"?>
<svg width="20px" height="19px" viewBox="0 0 20 19" version="1.1" xmlns="http://www.w3.org/2000/svg" xmlns:xlink="http://www.w3.org/1999/xlink">
    <title>A3</title>
    <g id="Desktop" stroke="none" stroke-width="1" fill="none" fill-rule="evenodd">
        <g id="parceirias-copy-4" transform="translate(-740.000000, -1252.000000)" fill="#000000" fill-rule="nonzero">
            <g id="A3" transform="translate(740.000000, 1252.000000)">
                <polygon id="Path" points="17.36 18 2.64 18 0.01 1.15 1.99 0.85 4.36 16 15.64 16 18.01 0.85 19.99 1.15"></polygon>
                <path d="M16,4.75 C15.2826787,4.7413471 14.6071807,4.41094044 14.16,3.85 C13.9098794,3.47292899 13.4874852,3.24624058 13.035,3.24624058 C12.5825148,3.24624058 12.1601206,3.47292899 11.91,3.85 C11.4706363,4.41794183 10.7930518,4.7504314 10.075,4.7504314 C9.3569482,4.7504314 8.6793637,4.41794183 8.24,3.85 C7.97985585,3.48720192 7.56615556,3.26557677 7.12,3.25 C6.67384444,3.26557677 6.26014415,3.48720192 6,3.85 C5.55502998,4.40825532 4.8838011,4.73836788 4.17,4.75 C3.4561989,4.73836788 2.78497002,4.40825532 2.34,3.85 C2.07985585,3.48720192 1.66615556,3.26557677 1.22,3.25 L1.22,2.25 C1.9338011,2.26163212 2.60502998,2.59174468 3.05,3.15 C3.31014415,3.51279808 3.72384444,3.73442323 4.17,3.75 C4.61615556,3.73442323 5.02985585,3.51279808 5.29,3.15 C5.7293637,2.58205817 6.4069482,2.2495686 7.125,2.2495686 C7.8430518,2.2495686 8.5206363,2.58205817 8.96,3.15 C9.21084881,3.52275002 9.6307031,3.74627591 10.08,3.74627591 C10.5292969,3.74627591 10.9491512,3.52275002 11.2,3.15 C11.6393637,2.58205817 12.3169482,2.2495686 13.035,2.2495686 C13.7530518,2.2495686 14.4306363,2.58205817 14.87,3.15 C15.1201206,3.52707101 15.5425148,3.75375942 15.995,3.75375942 C16.4474852,3.75375942 16.8698794,3.52707101 17.12,3.15 C17.5768932,2.57933515 18.2689693,2.24802208 19,2.25 L19,3.25 C18.5502875,3.26250136 18.1322599,3.48446291 17.87,3.85 C17.4152971,4.41792528 16.727525,4.74893859 16,4.75 L16,4.75 Z" id="Path"></path>
                <path d="M9.67,11.35 C9.69903468,11.8275151 9.50736291,12.2919506 9.15,12.61 C8.78124756,12.8915972 8.32299792,13.0301378 7.86,13 C7.62971982,12.9993257 7.40072494,12.9656499 7.18,12.9 C6.96820414,12.8406681 6.77081149,12.7385684 6.6,12.6 C6.42798913,12.4561532 6.29116561,12.2748621 6.2,12.07 C6.08762761,11.8522166 6.01964486,11.614277 6,11.37 L7,11.37 C6.98925529,11.5816365 7.07360514,11.7870101 7.23,11.93 C7.38347038,12.0592724 7.57946117,12.1269783 7.78,12.12 C7.98752233,12.1294772 8.18987913,12.0535934 8.34,11.91 C8.48672069,11.7537342 8.56266783,11.5439754 8.55,11.33 C8.56107018,11.1192501 8.48515456,10.9131934 8.34,10.76 C8.180042,10.6127324 7.96703246,10.5369155 7.75,10.55 L7.68,10.55 L7.68,9.65 L7.83,9.65 C8.03035637,9.66388593 8.22702563,9.59104546 8.37,9.45 C8.4955332,9.30678235 8.56012734,9.12017706 8.55,8.93 C8.56259697,8.72983099 8.48994543,8.53367183 8.35,8.39 C8.06709286,8.13070302 7.63290714,8.13070302 7.35,8.39 C7.2165987,8.52231449 7.14108369,8.70211212 7.14,8.89 L6.14,8.89 C6.13250668,8.44164893 6.31830861,8.01175429 6.65,7.71 C6.98993092,7.41362061 7.42921071,7.25647987 7.88,7.27 C8.11862379,7.26791893 8.35569418,7.30855957 8.58,7.39 C8.78373285,7.46641974 8.97056768,7.58191764 9.13,7.73 C9.28559336,7.87577764 9.40832099,8.05305088 9.49,8.25 C9.57738521,8.45898605 9.62160482,8.68348561 9.62,8.91 C9.62791136,9.1620464 9.56559069,9.41132911 9.44,9.63 C9.3242304,9.82112792 9.15819181,9.9767891 8.96,10.08 C9.18194132,10.1947134 9.3685783,10.3675254 9.5,10.58 C9.62478783,10.8167425 9.68351103,11.082724 9.67,11.35 L9.67,11.35 Z" id="Path"></path>
                <path d="M13.84,11.35 C13.8636601,11.8167275 13.680796,12.2702306 13.34,12.59 C12.632213,13.1966783 11.587787,13.1966783 10.88,12.59 C10.539204,12.2702306 10.3563399,11.8167275 10.38,11.35 L10.38,9 C10.3563399,8.53327253 10.539204,8.07976936 10.88,7.76 C11.587787,7.15332172 12.632213,7.15332172 13.34,7.76 C13.679653,8.0805505 13.862295,8.5335027 13.84,9 L13.84,11.35 Z M12.84,11.35 L12.84,9 C12.8485226,8.7961989 12.7807803,8.59653762 12.65,8.44 C12.5226935,8.29935643 12.3395531,8.22243743 12.15,8.23 C11.9606975,8.22380916 11.7781105,8.30049569 11.65,8.44 C11.5183553,8.59605102 11.4504954,8.79605906 11.46,9 L11.46,11.38 C11.4494852,11.5840823 11.5174677,11.7844515 11.65,11.94 C11.7781105,12.0795043 11.9606975,12.1561908 12.15,12.15 C12.3395531,12.1575626 12.5226935,12.0806436 12.65,11.94 C12.7773911,11.7677122 12.8313273,11.5519674 12.8,11.34 L12.84,11.35 Z" id="Shape"></path>
            </g>
        </g>
    </g>
</svg>