<?xml version="1.0" encoding="utf-8"?>
<!-- Generator: Adobe Illustrator 25.0.1, SVG Export Plug-In . SVG Version: 6.00 Build 0)  -->
<svg version="1.1" id="Layer_1" xmlns="http://www.w3.org/2000/svg" xmlns:xlink="http://www.w3.org/1999/xlink" x="0px" y="0px"
	 viewBox="0 0 24 27" style="enable-background:new 0 0 24 27;" xml:space="preserve">
<style type="text/css">
	.st0{fill-rule:evenodd;clip-rule:evenodd;fill:#3B3B3B;}
</style>
<g id="Clip-5">
</g>
<g id="Clip-8">
</g>
<g>
	<path id="Fill-7" class="st0" d="M15.6,23.4c0,1.1,0.9,2,2,2c1.1,0,2-0.9,2-2s-0.9-2-2-2C16.5,21.4,15.6,22.3,15.6,23.4L15.6,23.4z
		"/>
	<path id="Fill-4" class="st0" d="M8.2,23.4c0,1.1,0.9,2,2,2s2-0.9,2-2s-0.9-2-2-2S8.2,22.3,8.2,23.4L8.2,23.4z"/>
	<path id="Fill-1" class="st0" d="M7.1,13.4L5.7,7.5h15.7L20,13.4H7.1z M22.8,6.3H5.3L4.5,2.8L4.2,1.6H1.6C1.2,1.6,1,1.9,1,2.2
		s0.3,0.6,0.6,0.6h1.7l3.4,14.1L7,18.1h12.5c0.3,0,0.6-0.2,0.6-0.6c0-0.3-0.2-0.6-0.6-0.6c0,0,0,0-0.1,0H7.9l-0.6-2.4h13.5L22.8,6.3
		z"/>
</g>
</svg>
