<?xml version="1.0" encoding="UTF-8"?>
<svg width="35px" height="35px" viewBox="0 0 35 35" version="1.1" xmlns="http://www.w3.org/2000/svg" xmlns:xlink="http://www.w3.org/1999/xlink">
    <title>Cart/light</title>
    <defs>
        <polygon id="path-1" points="0 0.0816166667 16.0285714 0.0816166667 16.0285714 11.8598964 0 11.8598964"></polygon>
        <polygon id="path-3" points="0.315733333 0.1152 3.19973333 0.1152 3.19973333 3 0.315733333 3"></polygon>
        <polygon id="path-5" points="0.750666667 0.1152 3.63466667 0.1152 3.63466667 3 0.750666667 3"></polygon>
    </defs>
    <g id="Symbols" stroke="none" stroke-width="1" fill="none" fill-rule="evenodd">
        <g id="Product_block/sale-Ipad" transform="translate(-120.000000, -117.000000)">
            <g id="Cart/light" transform="translate(120.000000, 117.000000)">
                <circle id="Oval" fill="#E3E0D7" cx="17.5" cy="17.5" r="17.5"></circle>
                <g id="Cart-symbol/articles" transform="translate(9.000000, 10.000000)">
                    <g id="Group-10">
                        <g id="Group-3">
                            <mask id="mask-2" fill="white">
                                <use xlink:href="#path-1"></use>
                            </mask>
                            <g id="Clip-2"></g>
                            <path d="M4.45934286,8.49328333 L3.41627143,4.28628333 L14.9192,4.28628333 L13.8761286,8.49328333 L4.45934286,8.49328333 Z M16.0290571,3.44511667 L3.18434286,3.44511667 L2.55898571,0.921616667 L2.35377143,0.0816166667 L0.412128571,0.0816166667 C0.170485714,0.0956166667 -0.0140857143,0.295116667 0.000485714286,0.527283333 C0.0138428571,0.739616667 0.189914286,0.908783333 0.412128571,0.921616667 L1.68227143,0.921616667 L4.18612857,11.01795 L4.39498571,11.8591167 L13.5470571,11.8591167 C13.7887,11.8731167 13.9963429,11.69695 14.0109143,11.4636167 C14.0254857,11.2326167 13.8421286,11.03195 13.5992714,11.01795 C13.5822714,11.01795 13.5640571,11.01795 13.5470571,11.01795 L5.06162857,11.01795 L4.64391429,9.33561667 L14.5682714,9.33561667 L16.0290571,3.44511667 Z" id="Fill-1" fill="#000000" mask="url(#mask-2)"></path>
                        </g>
                        <g id="Group-6" transform="translate(5.000000, 14.000000)">
                            <mask id="mask-4" fill="white">
                                <use xlink:href="#path-3"></use>
                            </mask>
                            <g id="Clip-5"></g>
                            <path d="M0.315733333,1.55786667 C0.315733333,2.35386667 0.961066667,3.00053333 1.7584,3.00053333 C2.5544,3.00053333 3.19973333,2.35386667 3.19973333,1.55786667 C3.19973333,0.761866667 2.5544,0.1152 1.7584,0.1152 C0.9624,0.1152 0.317066667,0.7592 0.315733333,1.5552 L0.315733333,1.55786667 Z" id="Fill-4" fill="#000000" mask="url(#mask-4)"></path>
                        </g>
                        <g id="Group-9" transform="translate(10.000000, 14.000000)">
                            <mask id="mask-6" fill="white">
                                <use xlink:href="#path-5"></use>
                            </mask>
                            <g id="Clip-8"></g>
                            <path d="M0.750666667,1.55786667 C0.750666667,2.35386667 1.396,3.00053333 2.19333333,3.00053333 C2.99066667,3.00053333 3.63466667,2.35386667 3.63466667,1.55786667 C3.63466667,0.761866667 2.99066667,0.1152 2.19333333,0.1152 C1.39733333,0.1152 0.752,0.7592 0.750666667,1.5552 L0.750666667,1.55786667 Z" id="Fill-7" fill="#000000" mask="url(#mask-6)"></path>
                        </g>
                    </g>
                </g>
            </g>
        </g>
    </g>
</svg>