<?xml version="1.0" encoding="UTF-8"?>
<svg width="11px" height="11px" viewBox="0 0 11 11" version="1.1" xmlns="http://www.w3.org/2000/svg" xmlns:xlink="http://www.w3.org/1999/xlink">
    <title>Icon_download</title>
    <g id="Icon_download" stroke="none" stroke-width="1" fill="none" fill-rule="evenodd">
        <g id="download-icon" fill="#223C52" fill-rule="nonzero">
            <path d="M4.640625,0 L6.359375,0 C6.64511719,0 6.875,0.229882812 6.875,0.515625 L6.875,4.125 L8.75917969,4.125 C9.14160156,4.125 9.3328125,4.58691406 9.06210938,4.85761719 L5.79433594,8.12753906 C5.63320313,8.28867188 5.36894531,8.28867188 5.2078125,8.12753906 L1.93574219,4.85761719 C1.66503906,4.58691406 1.85625,4.125 2.23867187,4.125 L4.125,4.125 L4.125,0.515625 C4.125,0.229882812 4.35488281,0 4.640625,0 Z M11,8.078125 L11,10.484375 C11,10.7701172 10.7701172,11 10.484375,11 L0.515625,11 C0.229882812,11 0,10.7701172 0,10.484375 L0,8.078125 C0,7.79238281 0.229882812,7.5625 0.515625,7.5625 L3.66738281,7.5625 L4.72011719,8.61523438 C5.15195312,9.04707031 5.84804687,9.04707031 6.27988281,8.61523438 L7.33261719,7.5625 L10.484375,7.5625 C10.7701172,7.5625 11,7.79238281 11,8.078125 Z M8.3359375,9.96875 C8.3359375,9.73242188 8.14257812,9.5390625 7.90625,9.5390625 C7.66992188,9.5390625 7.4765625,9.73242188 7.4765625,9.96875 C7.4765625,10.2050781 7.66992188,10.3984375 7.90625,10.3984375 C8.14257812,10.3984375 8.3359375,10.2050781 8.3359375,9.96875 Z M9.7109375,9.96875 C9.7109375,9.73242188 9.51757812,9.5390625 9.28125,9.5390625 C9.04492188,9.5390625 8.8515625,9.73242188 8.8515625,9.96875 C8.8515625,10.2050781 9.04492188,10.3984375 9.28125,10.3984375 C9.51757812,10.3984375 9.7109375,10.2050781 9.7109375,9.96875 Z" id="Shape"></path>
        </g>
    </g>
</svg>