<?xml version="1.0" encoding="utf-8"?>
<!-- Generator: Adobe Illustrator 25.0.1, SVG Export Plug-In . SVG Version: 6.00 Build 0)  -->
<svg version="1.1" id="Layer_1" xmlns="http://www.w3.org/2000/svg" xmlns:xlink="http://www.w3.org/1999/xlink" x="0px" y="0px"
	 viewBox="0 0 44 44" style="enable-background:new 0 0 44 44;" xml:space="preserve">
<style type="text/css">
	.st0{fill:#FB3729;}
	.st1{fill-rule:evenodd;clip-rule:evenodd;fill:#FFFFFF;}
</style>
<g>
	<circle id="Oval" class="st0" cx="22" cy="22" r="21.5"/>
	<path id="Shape" class="st1" d="M22,13c2.9,0,3.3,0,4.4,0.1c1.1,0,1.7,0.2,2,0.4c0.5,0.2,0.9,0.4,1.3,0.8c0.4,0.4,0.6,0.8,0.8,1.3
		c0.2,0.4,0.3,1,0.4,2C31,18.7,31,19.1,31,22s0,3.3-0.1,4.4c0,1.1-0.2,1.7-0.4,2c-0.2,0.5-0.4,0.9-0.8,1.3s-0.8,0.6-1.3,0.8
		c-0.4,0.2-1,0.3-2,0.4C25.3,31,24.9,31,22,31s-3.3,0-4.4-0.1c-1.1,0-1.7-0.2-2-0.4c-0.5-0.2-0.9-0.4-1.3-0.8
		c-0.4-0.4-0.6-0.8-0.8-1.3c-0.2-0.4-0.3-1-0.4-2C13,25.3,13,24.9,13,22s0-3.3,0.1-4.4c0-1.1,0.2-1.7,0.4-2c0.2-0.5,0.4-0.9,0.8-1.3
		c0.4-0.4,0.8-0.6,1.3-0.8c0.4-0.2,1-0.3,2-0.4C18.7,13,19.1,13,22,13 M23.1,11c2,0,2.4,0,3.4,0.1c1.2,0.1,2,0.2,2.7,0.5
		s1.3,0.7,1.9,1.3s1,1.2,1.3,1.9c0.3,0.7,0.5,1.5,0.5,2.7c0,1,0.1,1.4,0.1,3.4v0.8l0,0V22c0,0.1,0,0.2,0,0.3v0.8c0,2,0,2.4-0.1,3.4
		c-0.1,1.2-0.2,2-0.5,2.7s-0.7,1.3-1.3,1.9c-0.6,0.6-1.2,1-1.9,1.3s-1.5,0.5-2.7,0.5c-1,0-1.4,0.1-3.4,0.1h-0.8l0,0L22,33
		c-0.1,0-0.2,0-0.3,0h-0.8c-2,0-2.4,0-3.4-0.1c-1.2-0.1-2-0.2-2.7-0.5s-1.3-0.7-1.9-1.3c-0.6-0.6-1-1.2-1.3-1.9
		c-0.3-0.7-0.5-1.5-0.5-2.7c0-1-0.1-1.4-0.1-3.4v-2.2c0-2,0-2.4,0.1-3.4c0.1-1.2,0.2-2,0.5-2.7s0.7-1.3,1.3-1.9
		c0.6-0.6,1.2-1,1.9-1.3s1.5-0.5,2.7-0.5c1,0,1.4-0.1,3.4-0.1C20.9,11,23.1,11,23.1,11z M22,16.4c-3.1,0-5.7,2.5-5.7,5.7
		s2.5,5.7,5.7,5.7s5.7-2.5,5.7-5.7S25.1,16.4,22,16.4z M22,18.4c2,0,3.7,1.6,3.7,3.7S24,25.7,22,25.7S18.4,24,18.4,22
		S20,18.4,22,18.4z M27.8,14.8c-0.7,0-1.3,0.6-1.3,1.3c0,0.7,0.6,1.3,1.3,1.3c0.7,0,1.3-0.6,1.3-1.3C29.2,15.4,28.6,14.8,27.8,14.8z
		"/>
</g>
</svg>
