<?xml version="1.0" encoding="utf-8"?>
<!-- Generator: Adobe Illustrator 25.0.1, SVG Export Plug-In . SVG Version: 6.00 Build 0)  -->
<svg version="1.1" id="Layer_1" xmlns="http://www.w3.org/2000/svg" xmlns:xlink="http://www.w3.org/1999/xlink" x="0px" y="0px"
	 viewBox="0 0 25 25" style="enable-background:new 0 0 25 25;" xml:space="preserve">
<style type="text/css">
	.st0{fill:none;stroke:#3B3B3B;}
	.st1{fill:none;stroke:#3B3B3B;stroke-linecap:square;}
</style>
<g>
	<path id="Stroke-1" class="st0" d="M19,11.4C19,7.8,16.1,5,12.6,5C9,5.1,6,8.3,6.3,11.8c0.1,1.6,0.8,3.1,2,4.2
		c1.2,1.1,1.9,2.6,1.9,4.2v0.6h5.1v-0.6c0-1.6,0.7-3,1.8-4.1C18.2,14.9,19,13.2,19,11.4z"/>
	<line id="Line" class="st1" x1="10.8" y1="22.5" x2="14.8" y2="22.5"/>
	<line id="Line-Copy" class="st1" x1="11.8" y1="24.5" x2="13.8" y2="24.5"/>
	<line id="Line-11" class="st1" x1="12.8" y1="20.5" x2="12.8" y2="14.5"/>
	<line id="Line-14" class="st1" x1="12.8" y1="2.5" x2="12.8" y2="0.5"/>
	<line id="Line-14-Copy" class="st1" x1="20.1" y1="5.3" x2="21.5" y2="3.9"/>
	<line id="Line-14-Copy-3" class="st1" x1="5.5" y1="5.3" x2="4.1" y2="3.9"/>
	<line id="Line-14-Copy-2" class="st1" x1="22" y1="11.4" x2="24" y2="11.4"/>
	<line id="Line-14-Copy-4" class="st1" x1="3" y1="11.4" x2="1" y2="11.4"/>
</g>
</svg>
