<?xml version="1.0" encoding="UTF-8"?>
<svg width="230px" height="222px" viewBox="0 0 230 222" version="1.1" xmlns="http://www.w3.org/2000/svg" xmlns:xlink="http://www.w3.org/1999/xlink">
    <title>Logo Out</title>
    <defs>
        <polygon id="path-1" points="0.762394099 0.9664 16.914 0.9664 16.914 19.4474 0.762394099 19.4474"></polygon>
    </defs>
    <g id="Desktop" stroke="none" stroke-width="1" fill="none" fill-rule="evenodd">
        <g id="Logo-Out">
            <path d="M20.3591308,59.8742622 C23.8235497,61.3841402 24.8335464,64.4832562 23.3120449,68.0890564 L17.4832928,81.8987418 C15.9327627,85.5737278 13.0559237,86.8974145 9.5925058,85.3865192 L3,82.5112395 L4.25623972,79.5352334 L10.7826803,82.3810074 C12.8907607,83.2997539 14.0829372,82.7737385 15.247086,80.0185165 L20.4362069,67.7217613 C21.5623182,65.0509866 21.1519132,63.7242475 19.0438328,62.8044836 L12.5183932,59.959727 L13.766625,57 L20.3591308,59.8742622 Z" id="Fill-13" fill="#1A171B"></path>
            <path d="M39.7756108,36.3148083 C40.525206,35.4849403 40.4385592,34.5411293 39.4733547,33.6679024 C38.5635637,32.8440845 37.6426901,32.8511429 36.8799971,33.6951277 L24.0744126,47.87246 L26.9700263,50.4921406 L39.7756108,36.3148083 Z M28.9548415,52.2880033 L31.6056277,54.6868563 L29.5160304,57 L20,48.3897411 L34.8941744,31.8992651 C36.9605988,29.6133467 39.6476557,29.4005859 41.6465762,31.2085487 C42.9513152,32.3883125 43.5487748,33.9421723 43.0268792,35.6966928 L48,36.5366443 L45.5668382,39.2309424 L41.3674931,38.5462761 L28.9548415,52.2880033 Z" id="Fill-15" fill="#1A171B"></path>
            <path d="M53.7131347,27.7965447 C54.5103466,29.0911912 55.341063,29.4011624 58.1721997,27.4834737 L58.4737409,27.2799259 C60.9274585,25.6174469 61.3098048,25.0233353 60.7451542,24.1078869 C60.0937858,23.0498518 58.5614441,23.8867741 55.9204951,25.3167748 C52.9287335,26.9389576 50.2562507,27.8316747 48.6815356,25.274412 C47.3196731,23.0632838 47.8380086,21.1001327 51.7097581,18.4788092 L53.2145078,17.4590039 C56.5728489,15.1858814 59.0029162,15.6663369 60.5796021,18.2235996 L57.8824837,20.0493302 C57.0655633,18.7236865 56.032834,18.6399943 53.8796722,20.0978923 L53.578131,20.3014401 C51.0327686,22.0248802 50.73714,22.5838617 51.2535046,23.420784 C51.8457473,24.3827281 53.571233,23.6181324 55.7322782,22.4454078 C59.544902,20.3562017 61.6014917,19.4335206 63.381176,22.3234858 C64.6356268,24.3599969 64.1537521,26.5215296 60.3430992,29.1015236 L58.8373641,30.121329 C54.711374,32.9152031 52.7671231,32.4636783 51.0170017,29.6222753 L53.7131347,27.7965447 Z" id="Fill-17" fill="#1A171B"></path>
            <path d="M78.5115761,17.0988358 C81.3493415,15.9829958 82.3684831,14.1165364 81.4314665,11.594294 C80.4865341,9.05389143 78.5115761,8.34665466 75.6668845,9.44534345 L74.4894296,9.90035598 C71.644738,11.0000537 70.6246069,12.8665131 71.5685497,15.4048978 C72.5065559,17.9281491 74.4825034,18.6363948 77.3341212,17.5548572 L78.5115761,17.0988358 Z M75.2463649,6.76167753 C79.7573036,5.01931248 82.8602437,6.2743803 84.4097349,10.4431425 C85.9602155,14.6129137 84.4512921,17.6496936 79.9403534,19.3920586 L77.7536513,20.2375143 C73.2427126,21.9808882 70.1397725,20.7268293 68.5902813,16.5560492 C67.0398007,12.3862781 68.5487241,9.34949824 73.0586734,7.60713319 L75.2463649,6.76167753 Z" id="Fill-19" fill="#1A171B"></path>
            <polygon id="Fill-21" fill="#1A171B" points="106.507522 6.0349535 114.807819 5.61806181 114.945861 8.36513651 106.643472 8.7820282 106.896549 13.8372337 103.667203 14 103 0.645814581 115.860912 0 116 2.7659766 106.367388 3.25007501"></polygon>
            <path d="M145.445932,10.8440612 C146.562161,11.0683727 147.343931,10.5176078 147.609651,9.24984701 C147.861008,8.05418637 147.377788,7.26909597 146.244118,7.04178025 L127.186154,3.22848401 L126.388995,7.03076495 L145.445932,10.8440612 Z M125.84114,9.63738526 L125.110667,13.1182197 L122,12.4963561 L124.625395,0 L146.791973,4.43616134 C149.86468,5.0510153 151.442584,7.24506259 150.891651,9.86870654 C150.531544,11.5830876 149.477898,12.8788873 147.670182,13.3174965 L149.50765,18 L145.887089,17.2759944 L144.313288,13.3335188 L125.84114,9.63738526 Z" id="Fill-23" fill="#1A171B"></path>
            <path d="M164.841577,15.5232667 L160.181246,18.8050354 L164.971086,21.231039 L164.841577,15.5232667 Z M157.86112,20.4704703 L155.916471,21.8773721 L153,20.4003257 L164.667894,12 L167.728934,13.5511993 L168,28 L165.05341,26.5069205 L165.01024,24.0939438 L157.86112,20.4704703 Z" id="Fill-25" fill="#1A171B"></path>
            <polygon id="Fill-27" fill="#1A171B" points="193.352771 49 191.072405 46.9266352 181.866184 25.3886389 175.3066 32.5854422 173 30.4878865 181.648238 21 183.914478 23.0612693 193.1096 44.6385759 199.6934 37.4145578 202 39.5121135"></polygon>
            <path d="M211.966849,53.9643356 L213.213165,55.9604509 C215.686747,59.9209183 215.595504,62.6932455 212.918381,64.3101882 L211.201813,61.5606908 C212.360897,60.8748053 212.182422,59.2856554 210.676415,56.8756266 L210.00563,55.8006426 C208.386321,53.2059905 206.353913,52.5608015 204.074849,53.9554022 C201.793779,55.3500029 201.468915,57.4384298 203.089226,60.0330819 L203.760011,61.1080659 C205.245965,63.4883168 206.711866,64.288351 208.085521,63.4694574 L204.75165,58.060789 L206.689807,56.8756266 L211.771329,65.0119552 L209.863251,66.1792509 C206.978576,67.9450834 204.243297,66.8591808 201.798793,62.9443729 L200.553479,60.9492502 C197.983641,56.83493 198.609306,53.5444665 202.377332,51.2386605 C206.146361,48.9328546 209.398013,49.8490228 211.966849,53.9643356" id="Fill-29" fill="#1A171B"></path>
            <path d="M213.795365,82.3924155 C214.826522,85.2638446 216.67465,86.3433516 219.256113,85.4894428 C221.852875,84.6295972 222.636187,82.6773815 221.623389,79.8000156 L221.204195,78.6077095 C220.191396,75.7303436 218.342249,74.6498471 215.743447,75.5106822 C213.164023,76.364591 212.380711,78.3168067 213.375151,81.2001094 L213.795365,82.3924155 Z M224.348663,79.4675551 C225.955066,84.0309705 224.582229,87.0903981 220.316848,88.503355 C216.051468,89.9163119 213.036531,88.3094197 211.430129,83.7460044 L210.650896,81.5325699 C209.045514,76.9691545 210.41733,73.9097269 214.682711,72.49677 C218.949112,71.0838131 221.964048,72.6897158 223.569431,77.2541206 L224.348663,79.4675551 Z" id="Fill-31" fill="#1A171B"></path>
            <path d="M208.641201,161.125639 C205.175647,159.615709 204.166613,156.516487 205.688173,152.91158 L211.51715,139.100402 C213.066739,135.426308 215.943688,134.102575 219.408241,135.613523 L226,138.487884 L224.744713,141.465009 L218.218021,138.619138 C216.109859,137.70036 214.916635,138.226393 213.753443,140.98171 L208.564122,153.278888 C207.437967,155.948737 207.847387,157.276539 209.956549,158.195317 L216.482241,161.041189 L215.233961,164 L208.641201,161.125639 Z" id="Fill-33" fill="#1A171B"></path>
            <path d="M189.224685,185.68457 C188.475063,186.514454 188.561713,187.458282 189.525945,188.331525 C190.436776,189.156367 191.357683,189.149309 192.120403,188.305308 L204.926448,174.127711 L202.03073,171.506973 L189.224685,185.68457 Z M200.045844,169.711076 L197.393955,167.313187 L199.484635,165 L209,173.609412 L194.10529,190.101204 C192.039798,192.386157 189.351637,192.59993 187.353652,190.790925 C186.048866,189.611139 185.451385,188.05725 185.972292,186.303706 L181,185.463738 L183.433249,182.76939 L187.632746,183.454069 L200.045844,169.711076 Z" id="Fill-35" fill="#1A171B"></path>
            <path d="M175.287111,193.203764 C174.48892,191.909131 173.658209,191.599163 170.827091,193.516832 L170.526538,193.720377 C168.071851,195.381806 167.690493,195.976944 168.254154,196.89135 C168.905518,197.950407 170.438835,197.113494 173.079766,195.682475 C176.071507,194.060309 178.743972,193.168634 180.318676,195.72587 C181.68053,197.936975 181.161212,199.899073 177.290474,202.520369 L175.78475,203.540163 C172.427417,205.814295 169.996381,205.333845 168.420691,202.776609 L171.116805,200.950897 C171.93372,202.276527 172.967428,202.360219 175.11959,200.902336 L175.421129,200.69879 C177.966474,198.975368 178.263086,198.416392 177.746725,197.578446 C177.153501,196.616512 175.429012,197.382133 173.267982,198.553812 C169.454398,200.642996 167.398808,201.5667 165.61815,198.676766 C164.364694,196.639243 164.846565,194.477732 168.657192,191.897765 L170.162917,190.879004 C174.288879,188.085159 176.232131,188.535646 177.982241,191.378052 L175.287111,193.203764 Z" id="Fill-37" fill="#1A171B"></path>
            <path d="M150.488583,203.900267 C147.650818,205.016132 146.631676,206.882633 147.568693,209.40594 C148.512635,211.94539 150.488583,212.653651 153.333275,211.553929 L154.51073,211.099916 C157.355421,210.000194 158.375552,208.133693 157.43062,205.594243 C156.492614,203.071944 154.517656,202.363683 151.666038,203.445244 L150.488583,203.900267 Z M153.752805,214.237655 C149.241866,215.981068 146.139915,214.725972 144.590424,210.557117 C143.039944,206.386244 144.547878,203.350406 149.058816,201.608002 L151.246508,200.762528 C155.756457,199.019115 158.860387,200.273202 160.409878,204.443066 C161.960358,208.613938 160.450445,211.649777 155.940496,213.39218 L153.752805,214.237655 Z" id="Fill-39" fill="#1A171B"></path>
            <polygon id="Fill-41" fill="#1A171B" points="122.492478 215.963996 114.191135 216.380888 114.054139 213.634863 122.355482 213.217972 122.103451 208.161716 125.332797 208 126 221.353135 113.139088 222 113 219.234023 122.631566 218.748875"></polygon>
            <path d="M83.5546479,210.155939 C82.4384468,209.932629 81.6566957,210.482392 81.3909824,211.750153 C81.138606,212.946815 81.6218144,213.730904 82.7554561,213.95822 L101.812948,217.771516 L102.611114,213.970236 L83.5546479,210.155939 Z M103.157929,211.363616 L103.88941,207.88178 L107,208.504645 L104.37467,221 L82.2086407,216.563839 C79.1349841,215.948985 77.5581449,213.754937 78.1080381,211.131293 C78.468136,209.417914 79.521756,208.121113 81.3294272,207.683505 L79.4930302,203 L83.1135022,203.725007 L84.6872637,207.666481 L103.157929,211.363616 Z" id="Fill-43" fill="#1A171B"></path>
            <path d="M64.1584231,205.475952 L68.8187538,202.195391 L64.0299177,199.768537 L64.1584231,205.475952 Z M71.1398835,200.529058 L73.0845325,199.122244 L76,200.599198 L64.3331102,209 L61.2710662,207.447896 L61,193 L63.9475939,194.492986 L63.9897597,196.906814 L71.1398835,200.529058 Z" id="Fill-45" fill="#1A171B"></path>
            <polygon id="Fill-47" fill="#1A171B" points="35.6472287 172 37.9265857 174.073365 47.1328068 195.612369 53.6933997 188.414558 56 190.513121 47.3517623 200 45.0855224 197.938731 35.8904005 176.361424 29.3055913 183.58645 27 181.487887"></polygon>
            <path d="M17.0328514,167.035793 L15.7875575,165.039743 C13.313012,161.078412 13.4042534,158.307167 16.0823372,156.690277 L17.7988776,159.438693 C16.6398118,160.125548 16.8182839,161.714647 18.3232647,164.123605 L18.994039,165.198554 C20.6143248,167.794114 22.6467007,168.438289 24.925729,167.043734 C27.2057599,165.649179 27.5316218,163.56082 25.9103334,160.966252 L25.2395591,159.892295 C23.7536286,157.512122 22.2887539,156.711121 20.9151205,157.530981 L24.2489388,162.938481 L22.3108122,164.123605 L17.2283686,155.987541 L19.1374182,154.820283 C22.0220484,153.0555 24.7562808,154.140375 27.2017493,158.055056 L28.4470432,160.051106 C31.015838,164.165292 30.3911857,167.455649 26.6222164,169.76138 C22.8542497,172.067111 19.6026488,171.150972 17.0328514,167.035793" id="Fill-49" fill="#1A171B"></path>
            <path d="M15.2047352,139.607912 C14.1736051,136.73555 12.3255262,135.656064 9.74413126,136.510945 C7.14743766,137.370774 6.36414595,139.322952 7.37589774,142.200262 L7.79610111,143.391555 C8.8088728,146.269854 10.6579716,147.34934 13.2556851,146.489511 C15.8360601,145.63463 16.6193518,143.683442 15.6239186,140.799206 L15.2047352,139.607912 Z M4.65069534,142.532716 C3.04535531,137.969389 4.41815562,134.909032 8.68342374,133.496103 C12.9486919,132.084163 15.963549,133.691023 17.569909,138.25336 L18.349121,140.467741 C19.9544611,145.030078 18.5826807,148.090435 14.3174125,149.503365 C10.0501046,150.916294 7.03626735,149.309433 5.43092732,144.746107 L4.65069534,142.532716 Z" id="Fill-51" fill="#1A171B"></path>
            <g id="Group-55" transform="translate(213.000000, 99.000000)">
                <mask id="mask-2" fill="white">
                    <use xlink:href="#path-1"></use>
                </mask>
                <g id="Clip-54"></g>
                <path d="M16.6354,14.0524 L14.6394,12.8994 L16.3234,11.8954 C16.5944,11.7654 16.6784,11.4014 16.5244,11.1334 C16.3674,10.8604 16.0294,10.8024 15.7724,10.9514 L13.5264,12.2684 L9.9564,10.1914 L13.5264,8.1354 L15.7724,9.4484 C15.8424,9.4994 15.9334,9.5294 16.0324,9.5294 C16.2234,9.5294 16.3944,9.4404 16.5244,9.2684 C16.6744,8.9964 16.5944,8.6374 16.3234,8.5064 L14.6394,7.5044 L16.6354,6.3514 C16.8954,6.2004 16.9844,5.8644 16.8354,5.5894 C16.6934,5.3234 16.3414,5.2324 16.0734,5.3884 L14.0684,6.5514 L14.0374,4.5454 C14.0324,4.2354 13.7964,3.9854 13.4864,3.9854 C13.1754,3.9854 12.9324,4.2544 12.9344,4.5454 L12.9534,7.1944 L9.4054,9.2494 L9.4054,5.0774 L11.6414,3.8034 C11.9024,3.6554 12.0164,3.3114 11.8624,3.0414 C11.7044,2.7674 11.3834,2.6874 11.1094,2.8404 L9.4054,3.8034 L9.4054,1.5274 C9.4054,1.2174 9.1544,0.9664 8.8444,0.9664 C8.5324,0.9664 8.2924,1.2174 8.2924,1.5274 L8.2924,3.8244 L6.5274,2.8404 C6.2524,2.6894 5.9394,2.7754 5.7854,3.0414 C5.6284,3.3154 5.7264,3.6514 5.9954,3.8034 L8.2924,5.0974 L8.2924,9.2284 L4.6614,7.1334 L4.6824,4.5454 C4.7124,4.2544 4.4514,3.9854 4.1404,3.9854 L4.1204,3.9854 C3.8294,3.9854 3.5724,4.2354 3.5694,4.5454 L3.5494,6.4914 L1.5934,5.3684 C1.3214,5.2104 0.9844,5.3044 0.8414,5.5684 C0.6924,5.8454 0.7694,6.1734 1.0424,6.3314 L3.0174,7.4744 L1.2924,8.5064 C1.0224,8.6374 0.9384,9.0004 1.1034,9.2684 C1.2084,9.4424 1.3634,9.5294 1.5734,9.5294 C1.6834,9.5294 1.7754,9.5024 1.8644,9.4484 L4.1204,8.1154 L7.7404,10.1914 L4.1204,12.2864 L1.8644,10.9514 C1.5934,10.7944 1.2434,10.8684 1.1034,11.1334 C0.9534,11.4094 1.0334,11.7414 1.2924,11.8954 L3.0174,12.9174 L1.0424,14.0714 C0.7704,14.2304 0.6824,14.5634 0.8414,14.8344 C0.9534,15.0234 1.1034,15.1144 1.3134,15.1144 C1.3634,15.1144 1.4634,15.0854 1.5934,15.0334 L3.5494,13.9094 L3.5694,15.8574 C3.5724,16.1674 3.8294,16.4064 4.1204,16.4064 L4.1404,16.4064 C4.4514,16.4064 4.6844,16.1494 4.6824,15.8364 L4.6614,13.2504 L8.2924,11.1744 L8.2924,15.2834 L5.9954,16.5774 C5.7214,16.7334 5.6254,17.0684 5.7854,17.3394 C5.8964,17.5314 6.0454,17.6224 6.2564,17.6224 C6.3574,17.6224 6.4484,17.6054 6.5274,17.5604 L8.2924,16.5594 L8.2924,18.8954 C8.2924,19.2044 8.5324,19.4474 8.8444,19.4474 C9.1544,19.4474 9.4054,19.2044 9.4054,18.8954 L9.4054,16.5984 L11.1094,17.5604 C11.1884,17.6054 11.2804,17.6224 11.3704,17.6224 C11.5904,17.6224 11.7534,17.5324 11.8624,17.3394 C12.0144,17.0704 11.9154,16.7334 11.6414,16.5774 L9.4054,15.3244 L9.4054,11.1544 L12.9534,13.2094 L12.9344,15.8364 C12.9324,16.1494 13.1754,16.4064 13.4864,16.4064 C13.7964,16.4064 14.0324,16.1674 14.0374,15.8574 L14.0684,13.8404 L16.0734,15.0144 C16.1504,15.0594 16.2534,15.0744 16.3644,15.0744 C16.5744,15.0744 16.7294,14.9874 16.8354,14.8144 C16.9994,14.5464 16.8954,14.2014 16.6354,14.0524" id="Fill-53" fill="#000000" mask="url(#mask-2)"></path>
            </g>
            <path d="M15.7237815,112.453493 L13.7464817,111.268113 L15.4147045,110.235918 C15.6831656,110.102267 15.7673692,109.728045 15.614812,109.452519 C15.4582923,109.171852 15.1244496,109.112223 14.8698574,109.265408 L12.6448998,110.619393 L9.107356,108.484065 L12.6448998,106.370326 L14.8698574,107.720199 C14.938211,107.772631 15.0283584,107.803474 15.1274215,107.803474 C15.3166321,107.803474 15.4850394,107.711974 15.614812,107.535144 C15.7634067,107.255506 15.6831656,106.886424 15.4147045,106.751745 L13.7464817,105.721606 L15.7237815,104.536226 C15.9813456,104.380986 16.0695117,104.03555 15.9219077,103.752827 C15.7822287,103.479357 15.4335265,103.385802 15.1670468,103.546183 L13.1808313,104.741843 L13.1501217,102.678481 C13.1461592,102.360803 12.9123703,102.103782 12.604284,102.103782 C12.2971883,102.103782 12.0554743,102.380337 12.0584462,102.678481 L12.0772682,105.4029 L8.56151823,107.515611 L8.56151823,103.226449 L10.7765695,101.916671 C11.0361149,101.764515 11.1480562,101.410854 10.995499,101.133272 C10.8399699,100.851577 10.5209867,100.769331 10.2505443,100.926627 L8.56151823,101.916671 L8.56151823,99.5767545 C8.56151823,99.2580488 8.31386044,99 8.00577416,99 C7.69669724,99 7.45894576,99.2580488 7.45894576,99.5767545 L7.45894576,101.938261 L5.71147241,100.926627 C5.43805821,100.771387 5.12799066,100.859802 4.97543346,101.133272 C4.820895,101.414967 4.91698622,101.760403 5.183466,101.916671 L7.45894576,103.24701 L7.45894576,107.494021 L3.86196404,105.340187 L3.88375793,102.678481 C3.91347686,102.380337 3.6539315,102.103782 3.34683584,102.103782 L3.32603259,102.103782 C3.03874956,102.103782 2.78316672,102.360803 2.78019483,102.678481 L2.7603822,104.680158 L0.823698299,103.525621 C0.554246626,103.363184 0.219413296,103.459824 0.0787436727,103.731237 C-0.0688603691,104.016016 0.00741822969,104.353228 0.276869903,104.515665 L2.23435706,105.690763 L0.525518322,106.751745 C0.258047911,106.886424 0.173844263,107.259618 0.337298403,107.535144 C0.441314675,107.714031 0.594862503,107.803474 0.802895045,107.803474 C0.912855103,107.803474 1.00399317,107.775716 1.09116871,107.720199 L3.32603259,106.349765 L6.91310799,108.484065 L3.32603259,110.637898 L1.09116871,109.265408 C0.823698299,109.103999 0.476977396,109.180077 0.337298403,109.452519 C0.188703731,109.73627 0.268944854,110.077593 0.525518322,110.235918 L2.23435706,111.286619 L0.276869903,112.473026 C0.00840886084,112.636492 -0.0797573117,112.978843 0.0787436727,113.257454 C0.188703731,113.450733 0.337298403,113.545317 0.545330946,113.545317 C0.594862503,113.545317 0.693925618,113.515502 0.823698299,113.462042 L2.7603822,112.306477 L2.78019483,114.309182 C2.78316672,114.627888 3.03874956,114.8736 3.32603259,114.8736 L3.34683584,114.8736 C3.6539315,114.8736 3.88573919,114.609383 3.88375793,114.287593 L3.86196404,111.62897 L7.45894576,109.49467 L7.45894576,113.719063 L5.183466,115.049402 C4.9130237,115.209783 4.81792311,115.554191 4.97543346,115.832801 C5.08539352,116.030193 5.23398819,116.123749 5.44301136,116.123749 C5.54207448,116.123749 5.63222191,116.106271 5.71147241,116.060008 L7.45894576,115.030897 L7.45894576,117.432498 C7.45894576,117.750176 7.69669724,118 8.00577416,118 C8.31386044,118 8.56151823,117.750176 8.56151823,117.432498 L8.56151823,115.070992 L10.2505443,116.060008 C10.3278136,116.106271 10.4189516,116.123749 10.5081084,116.123749 C10.7270379,116.123749 10.8885108,116.031221 10.995499,115.832801 C11.1460749,115.556247 11.0489931,115.209783 10.7765695,115.049402 L8.56151823,113.761214 L8.56151823,109.474109 L12.0772682,111.586819 L12.0584462,114.287593 C12.0554743,114.609383 12.2971883,114.8736 12.604284,114.8736 C12.9123703,114.8736 13.1461592,114.627888 13.1501217,114.309182 L13.1808313,112.235539 L15.1670468,113.442509 C15.244316,113.488772 15.346351,113.504193 15.4553204,113.504193 C15.663353,113.504193 15.8169008,113.41475 15.9219077,113.236892 C16.0843712,112.961366 15.9813456,112.606677 15.7237815,112.453493" id="Fill-56" fill="#000000"></path>
        </g>
    </g>
</svg>