<?xml version="1.0" encoding="UTF-8"?>
<svg width="103px" height="137px" viewBox="0 0 103 137" version="1.1" xmlns="http://www.w3.org/2000/svg" xmlns:xlink="http://www.w3.org/1999/xlink">
    <title>Logo in</title>
    <g id="Desktop" stroke="none" stroke-width="1" fill="none" fill-rule="evenodd">
        <g id="Logo-in" fill="#1A171B">
            <path d="M88,20 C88,20 87.5149627,14.1491651 82.3716975,13.2377768 C79.6712756,12.7601794 78.4654333,12.9268577 75.1065239,14.4344413 C73.1414476,15.6652963 72,16.8876037 72,16.8876037 C72,16.8876037 82.8151899,12.7195783 88,20" id="Fill-1"></path>
            <path d="M74.6142613,115.207416 L73.643958,114.635315 L72.8862265,115.466079 C70.3384177,118.261664 69.2979354,122.999756 68.7944761,125.225269 C64.5776238,124.991966 57.4447763,120.505436 56.85995,120.231558 L56.4561655,119.916091 L56.0157658,120.06926 C50.564167,122.271443 46.601587,128.979428 44.5613058,131.358111 C41.0309888,130.476629 35.6739793,126.552057 33.8249109,125.118761 L33.3275542,124.734317 L32.7111981,124.854012 C32.3358921,124.927046 24.9630116,126.911141 20.4491691,133.627242 C17.3297562,132.209161 8.34377196,126.798547 12.5057015,112.853078 L12.5392654,112.713096 C12.5443509,112.685708 12.8789733,111.023167 14.0974463,108.185992 C14.1076172,108.769251 14.1493178,109.105005 14.1584716,109.165867 C15.2762528,115.485352 22.3968952,118.767832 22.7569448,118.929115 C24.6100816,119.668586 26.3289625,119.953622 27.8779896,119.953622 C32.8068045,119.953622 35.9902941,117.074859 36.1631992,116.915604 L36.2710107,116.804024 C43.6469425,108.267141 36.5496932,94.3947069 33.8452527,89.8097842 C34.0415509,89.7063191 34.2337808,89.5967679 34.418891,89.4740299 C35.4929374,88.759918 36.2435493,87.7993159 36.7704016,86.7981392 C38.585906,87.9240826 42.7864849,90.1485816 47.6217276,90.1485816 C48.8361323,90.1485816 50.0932547,90.0065707 51.3595309,89.6728451 C51.3595309,89.6728451 53.3265816,88.8917853 54.8501815,88.2050612 C55.58452,91.1903328 57.0623507,94.6138094 59.9844484,97.543291 C64.3355565,101.906068 70.797125,104.103179 79.2460861,104.103179 C80.8785144,104.103179 82.5912929,104.01493 84.3732334,103.851617 C84.2338921,110.981578 87.2943139,116.216708 89.2857748,118.849995 C81.1846583,119.825813 74.6996968,115.258134 74.6142613,115.207416 L74.6142613,115.207416 Z M21.7327359,87.9656715 C24.1198445,90.241903 23.4292409,95.7093219 23.4292409,95.7093219 C26.0319724,92.3609082 26.527295,90.7237257 26.5364488,89.9720823 C27.916639,90.4021724 29.1930861,90.6233037 30.3566363,90.6233037 C30.6048061,90.6233037 30.8468733,90.6101169 31.0838551,90.5898297 C33.1007433,93.9047694 40.6149992,107.41609 34.2337808,114.935567 C33.7404925,115.356527 29.5877167,118.687697 23.841162,116.392192 C23.7801367,116.364805 17.7498141,113.588492 16.8903736,108.737806 C16.8852881,108.703318 16.4876062,105.484742 18.5044943,99.8327093 C19.3700374,97.8577437 21.3655666,92.8204149 21.632044,87.9098815 C21.665608,87.92814 21.700189,87.9474129 21.7327359,87.9656715 L21.7327359,87.9656715 Z M15.8397203,80.3954771 C15.7532677,80.333601 14.6965119,79.5981875 13.1220576,78.840458 C16.4123416,78.5604937 19.7066939,78.7014902 21.4347287,78.8820469 L22.736603,79.0676754 C24.5165094,79.4693633 32.2850376,81.1785657 35.2101865,81.1937812 C35.2183233,81.3763666 35.2295112,81.5559089 35.2315454,81.7425518 C35.2315454,81.7810976 35.22646,85.6326356 32.8769836,87.1846116 C31.2781192,88.240564 28.827951,88.0721796 25.5956411,86.6835161 L25.4308727,86.624683 C25.3942574,86.6145394 21.7693511,85.5129407 15.9465147,80.4786549 L15.8397203,80.3954771 Z M2.87284846,79.3861855 C2.7070629,78.4641292 2.67960149,76.9730149 3.17187272,74.6267923 C3.1840778,74.550715 4.40051663,67.1732497 12.9318619,63.8867122 L13.0396734,63.9830767 C14.8806051,65.3646397 17.0876889,66.0635361 19.5500622,66.0635361 C20.5559635,66.0635361 21.6045826,65.9438413 22.6857486,65.7095233 C23.009183,66.956176 23.8686235,68.025315 24.9284305,68.9230267 L24.9253793,68.9321559 C24.9345331,68.9372278 24.945721,68.9402708 24.9558919,68.9453427 C26.7500375,70.4557298 29.1025651,71.4761794 30.3729097,72.0249501 C30.3922344,72.033065 32.312499,72.7816652 33.3326396,74.4411638 C34.0547731,75.6157966 34.5673861,76.9577995 34.8796325,78.4438419 C32.9715729,78.3596497 27.7945883,77.3828177 23.293968,76.3654112 L21.7754536,76.1452943 C20.2233753,75.9840106 7.84743236,74.8428517 2.87284846,79.3861855 L2.87284846,79.3861855 Z M12.9094859,46.2418602 C13.3854838,46.3656126 14.0760874,46.4964654 14.8806051,46.4964654 C15.4969612,46.4964654 16.1794281,46.4153164 16.8741001,46.1962139 C15.8600621,47.167974 15.0158779,48.1468348 14.3171376,49.1256955 C13.3824325,48.2158115 13.0254341,47.1405862 12.9094859,46.2418602 L12.9094859,46.2418602 Z M9.40561321,35.855793 C10.5030526,37.3540078 11.9340973,38.8998977 13.2461425,39.0479947 L13.3681932,39.0632102 C13.4322699,39.5744494 13.5441497,40.0765593 13.7231574,40.5634537 C14.2022065,41.8740113 15.0301172,42.8741736 15.8692159,43.6156733 C14.5714099,43.9595425 13.342766,43.4969928 13.2807236,43.4736624 C13.228852,43.4533751 13.1759634,43.4341022 13.1210405,43.4199011 C12.1690449,43.1642816 11.4286039,42.629712 11.3665614,42.5871088 C11.3329975,42.5647928 8.41089985,40.5472239 9.40561321,35.855793 L9.40561321,35.855793 Z M13.923524,27.89304 C18.170889,27.1140089 18.2410682,29.3587952 18.2410682,29.3587952 C12.9003321,27.3290539 9.96196108,30.8762829 9.96196108,30.8762829 C10.017901,28.8455273 13.923524,27.89304 13.923524,27.89304 L13.923524,27.89304 Z M32.5698226,43.2819477 C33.724219,43.3184648 35.101358,43.424973 36.5913938,43.6724776 C36.4784969,44.4880258 35.8590895,46.3564833 32.7203519,47.1324713 C32.9115647,45.9720395 32.983778,44.5336722 32.5698226,43.2819477 L32.5698226,43.2819477 Z M48.5177833,21.6313745 C49.4179074,21.1891121 50.3526124,20.6728011 51.3208815,20.075341 C51.9229984,20.8330705 52.5393545,21.883951 52.6227558,23.0961153 C52.7142939,24.3914574 52.1742194,25.7060724 51.019823,27.0095295 C50.1919123,26.4638019 49.3263693,25.9809649 48.4374332,25.5447887 C49.1300711,25.0781815 49.5765733,24.3600122 49.5765733,23.5546076 C49.5765733,22.782677 49.1605838,22.0989961 48.5177833,21.6313745 L48.5177833,21.6313745 Z M45.5153356,23.6509721 C45.5153356,23.1934942 45.8875903,22.8222372 46.3473147,22.8222372 C46.806022,22.8222372 47.1782767,23.1934942 47.1782767,23.6509721 C47.1782767,24.1094644 46.806022,24.4807214 46.3473147,24.4807214 C45.8875903,24.4807214 45.5153356,24.1094644 45.5153356,23.6509721 L45.5153356,23.6509721 Z M17.4629949,36.3132709 C17.4629949,36.3132709 19.5683698,31.5112744 20.6586895,29.9542265 C20.7054756,29.8659769 21.7866416,27.7997186 20.9780556,26.1757227 C23.350925,25.623909 25.8590673,25.1562875 27.085677,24.948343 C27.2748556,24.9310988 46.1144012,23.1640777 53.4852476,33.0094892 C57.133547,37.8835055 57.4224004,44.9069579 54.367064,53.9114622 C54.2378937,53.6193255 54.139236,53.4205103 54.0914328,53.3251601 C47.7620859,38.5337125 29.0588303,40.606057 28.87372,40.6314161 L19.263243,42.596238 C18.5634855,42.2493257 16.9320742,41.2907523 16.3208036,39.6170526 C16.1804452,39.2346376 16.1061977,38.8268635 16.0858559,38.4018452 C16.5791442,37.9839275 17.0642958,37.3347349 17.4629949,36.3132709 L17.4629949,36.3132709 Z M28.9693264,65.1779969 C28.9693264,65.6354748 28.5970717,66.0067318 28.1373474,66.0067318 C27.6786401,66.0067318 27.3053683,65.6354748 27.3053683,65.1779969 C27.3053683,64.7195046 27.6786401,64.3472332 28.1373474,64.3472332 C28.5970717,64.3472332 28.9693264,64.7195046 28.9693264,65.1779969 L28.9693264,65.1779969 Z M37.6939187,57.5154955 C38.915443,60.1781995 38.1597456,62.6704904 38.1251646,62.7830848 L38.0804126,62.9585697 C37.5372869,65.8779076 34.4768651,66.7046138 34.3812587,66.7289586 C33.9011926,66.8374954 33.1129483,66.9744345 32.1884141,67.0677559 C32.6054208,66.0757085 32.7661209,65.0796036 32.6511898,64.0855274 C32.5230365,62.9961011 32.095859,62.1136049 31.640203,61.4542687 L34.8643762,59.0979024 C34.8877692,59.0816726 35.9994479,58.2813399 37.6939187,57.5154955 L37.6939187,57.5154955 Z M42.2321713,86.3690634 C41.0615014,85.8385513 38.5075901,84.2023831 37.8881827,79.8771374 C37.6308591,77.2763096 36.8995719,74.9655897 35.6902527,72.9997533 C35.4013993,72.530103 35.0708453,72.1131997 34.7240178,71.7439714 C36.4744286,71.215488 39.211416,69.5661331 42.9848174,64.9558513 C42.9848174,64.9558513 41.341201,65.8657353 39.1727666,66.8324236 C39.8989683,65.9996312 40.5122732,64.9254204 40.7848531,63.5377712 C40.9577583,62.9443686 41.7175241,59.8789623 40.293599,56.5761949 C41.2964491,56.308403 42.3816834,56.1278463 43.4964133,56.1237888 C45.5234723,56.1420474 47.3898312,56.3723079 49.0619261,56.8805039 C40.8774083,50.9992247 33.2950073,56.8267427 33.2950073,56.8267427 L29.0130613,59.9540252 C28.9866169,59.9743124 26.2842106,61.8934881 22.907474,62.8196019 C21.7876587,63.1259396 20.5966471,63.2730223 19.4747976,63.2801229 C15.2854066,62.1917109 17.8962749,56.6512578 17.8962749,56.6512578 C15.2935433,59.3839529 15.2935433,61.3893494 15.7888658,62.6187579 C15.3616883,62.4118278 15.0250317,62.1622944 14.8195797,61.8661002 C14.5480169,61.5212167 13.5695769,60.1021222 13.8736866,57.815747 C14.2225483,55.1834739 15.2009882,49.9361719 23.2797287,44.5894622 L29.2541114,43.3651255 C29.2581798,43.3641112 29.2693678,43.3630968 29.2744532,43.3630968 C29.533811,43.472648 29.7179042,43.6410324 29.8491087,43.9067956 C30.4003711,45.0114374 29.9701423,47.2308646 29.5704262,48.3689803 L28.8472757,50.4058221 L31.0055393,50.2019351 C34.5470443,49.8661808 37.0206055,48.6743037 38.358078,46.662821 C38.9591778,45.7569945 39.1859887,44.8795701 39.2663388,44.256751 C45.2376702,45.8766894 49.3762067,49.2991516 51.566,54.4500892 L51.611769,54.5464537 C51.6616064,54.6418038 56.5283788,64.274199 54.241962,80.8042656 C54.2216203,80.9797505 54.0161682,82.8867537 54.355876,85.547429 C52.715311,86.3213883 50.6689272,87.0020262 50.6689272,87.0020262 C47.6502061,87.8043877 44.6253824,87.2282292 42.2321713,86.3690634 L42.2321713,86.3690634 Z M41.1957572,11.1174975 L41.398158,11.0160612 C41.830421,10.7553698 52.1559118,4.73918021 67.9472407,13.03363 L68.6866647,13.4221312 L71.5894376,11.4329645 C71.6901295,11.3650022 81.7033739,4.70367749 88.4344711,10.7939156 L88.5310945,10.8740503 C88.5809319,10.9115817 93.5636525,14.7448611 92.1366762,20.8137976 C91.4521751,23.7240063 90.5825637,25.9373473 89.5542864,27.3929588 L88.8982638,28.320087 L90.1014805,29.575869 L90.5500169,30.151013 C97.9473075,39.3857778 99.3773351,48.6043127 99.3946256,48.7270506 C103.802691,74.8448804 88.9674259,95.9892863 87.9747467,97.3667918 L86.7247439,98.6357605 C80.3547134,100.324676 65.2356806,102.669884 58.1903028,89.6008253 L58.1821661,89.6038684 C56.5660112,85.1974736 56.9809836,81.1887093 56.986069,81.1521923 C58.4608486,70.4861607 57.1213419,62.599485 55.8082796,57.9821026 C60.4024721,46.5451549 60.3678911,37.586297 55.6953827,31.3520193 C54.9549417,30.3640293 54.1209284,29.4825475 53.2197873,28.6903297 C54.7952586,26.8553462 55.5224775,24.914869 55.3831363,22.905415 C55.2600685,21.1515806 54.4819951,19.6868398 53.6764604,18.6106002 C55.8886297,17.5475473 61.7846965,15.6182281 68.2076156,20.2467684 C68.2076156,20.2467684 62.8729821,9.52393254 50.6394316,16.8861824 C44.1941366,21.1941839 39.4117826,22.2257915 36.5903768,22.3536013 C35.5763387,22.2430357 34.6040013,22.1669584 33.6886209,22.1192833 C33.6682791,22.1142115 33.655057,22.1091397 33.6520057,22.1081253 L33.6479373,22.1172546 C31.3625376,21.9985741 29.4524439,22.0442204 28.2136291,22.1091397 C28.65708,20.3847219 30.8214461,15.2824738 41.1957572,11.1174975 L41.1957572,11.1174975 Z M49.1117635,3.41645029 C51.48565,2.33006704 54.3629957,2.60495954 57.6359891,4.21982613 C57.6593822,4.23402722 59.4555619,5.20984484 60.8042224,7.20205463 C54.3680811,5.40460262 49.1371907,5.776874 45.5224552,6.60155148 C46.3483318,5.39547335 47.5159503,4.14679196 49.1117635,3.41645029 L49.1117635,3.41645029 Z M87.1529385,103.391096 C93.4253284,101.970987 93.4751658,101.259919 93.5321228,100.377422 C93.5880627,99.4878257 93.2900555,98.7169095 92.692007,98.2076991 C92.2282142,97.8131117 91.6749176,97.6467561 91.1785781,97.5919805 C94.7953477,92.1306477 106.218278,72.5402467 102.127545,48.3000036 C102.068553,47.896287 100.601911,38.2791072 92.7225197,28.4468825 L92.4133245,28.0472233 C93.3856619,26.3745379 94.1800087,24.2007571 94.8289117,21.4437173 C96.5925445,13.9414853 90.9202374,9.23686769 90.2520097,8.71447052 C86.7786496,5.59631731 82.1529274,4.69962003 76.8742338,6.11871448 C73.0072601,7.15640828 70.1553417,9.07051208 70.0292226,9.15571861 L68.4903664,10.2106566 C67.1071249,9.5137889 65.764567,8.92647247 64.4596414,8.42131948 C62.9624859,3.93377564 59.0883927,1.86548859 58.8931115,1.76405225 C54.6874472,-0.311335345 50.917097,-0.556811297 47.6919068,1.03472494 C44.4107766,2.65669207 42.5454348,5.8519369 41.7124386,7.80255779 C40.8591007,8.15961372 40.2986844,8.46392275 40.0647539,8.59781872 C26.6727387,14.0074189 25.4562999,21.208385 25.3464542,22.4590951 C23.2268401,22.8486106 19.1401752,23.6570583 16.4825208,24.5425976 C15.232518,24.680551 13.2085102,25.051808 10.7959743,26.0479129 C10.6861287,26.0834156 8.09560216,26.9527251 7.21175153,29.0950607 C6.75304425,30.2088317 6.84661646,31.4412833 7.48128021,32.7670563 C4.83786504,39.3411458 7.84641527,43.5598833 9.77481664,44.8410243 C9.82465402,44.8785558 10.0626529,45.0479545 10.4288051,45.2579277 C10.3860873,47.0452361 10.9302301,49.4553636 13.0254341,51.220356 C11.896465,53.3789214 11.3635102,55.5171995 11.1163575,57.5702711 C10.9271788,59.1516637 11.1712803,60.4652643 11.5313299,61.4786134 C1.89135726,65.3981137 0.494893615,73.8376175 0.451158774,74.1388835 C-1.0093815,81.098431 1.49876078,82.8309637 2.01645925,83.1088993 L3.28578673,83.7875085 L3.91434793,82.4952095 C4.47679833,81.3378208 5.7573138,80.515172 7.3958447,79.9369849 C10.6179837,80.2696961 13.763841,82.3227677 14.1940698,82.6128756 C15.9485489,84.1263059 17.5189348,85.3039818 18.8828516,86.2250238 C19.04762,90.0755474 17.6389513,94.4880284 16.6208449,97.1304451 L16.5821955,97.1142153 C16.3462308,97.688345 16.1397617,98.2391444 15.9454976,98.7787857 C15.8061564,99.0972958 15.7024132,99.3224845 15.653593,99.4259496 C11.0848277,106.62793 9.9782345,111.430941 9.835842,112.129837 C4.21845764,131.080175 20.4206906,136.596283 20.584442,136.651059 L21.6615396,137 L22.2178875,136.019111 C25.3139074,130.555749 30.6922757,128.217641 32.6623778,127.699302 C34.4992411,129.062606 40.6668708,133.634342 44.8989795,134.232817 L45.6638306,134.340339 L46.1561019,133.747951 C49.1056609,130.207822 53.2991202,124.891544 56.2049444,123.87008 C58.4791562,124.847926 64.8054518,129.012902 69.5654298,128.600056 L70.6242198,128.509778 L70.9700302,127.052138 C71.263969,125.382496 72.3878527,120.871621 74.2725193,118.158199 C77.1641042,119.628012 84.0243717,123.214801 92.2332997,121.099853 L94.6173571,120.48312 L92.8486387,118.772903 C92.7865963,118.712042 86.7542395,112.750628 87.1529385,103.391096 L87.1529385,103.391096 Z" id="Fill-3"></path>
            <path d="M72.7126674,48 L78.2873326,48 C79.9598352,48 81,46.948793 81,45.2556693 L81,42 L79.1050463,42 L79.1050463,45.2271397 C79.1050463,45.867959 78.9495366,46.1346013 77.9855819,46.1346013 L73.0205973,46.1346013 C72.0072091,46.1346013 71.9021627,45.8580834 71.9021627,45.2271397 L71.9021627,42 L70,42 L70,45.2556693 C70,46.9740307 71.0144181,48 72.7126674,48" id="Fill-5"></path>
            <polygon id="Fill-7" points="71.8671473 53.5349308 81 53.5349308 81 51.8612892 71.8671473 51.8612892 71.8671473 50.6746541 81 50.6746541 81 49 70 49 70 55 71.8671473 55"></polygon>
            <path d="M79.000542,78 C79.4720867,78 80,77.1459192 80,76.0005496 C80,74.8562792 79.4720867,74 79.000542,74 C78.5279133,74 78,74.8562792 78,76.0005496 C78,77.1459192 78.5279133,78 79.000542,78" id="Fill-9"></path>
            <path d="M76.5,66.7033474 C76.9871403,66.7033474 77.4603053,66.8226127 77.9165003,67.0253638 C74.691192,67.4974557 72.2485026,71.4640216 72.2485026,76.443349 C72.2485026,81.5329967 74.8019965,85.554226 78.133118,85.8772362 C77.6120376,86.1465771 77.0640047,86.2976465 76.5,86.2976465 C73.3635349,86.2976465 70.7142102,81.8102886 70.7142102,76.4990061 C70.7142102,71.1897114 73.3635349,66.7033474 76.5,66.7033474 M82.1630065,76.443349 C82.1630065,80.4297925 80.2653553,83.2056929 78.5623605,83.2056929 C76.8603641,83.2056929 74.9637111,80.4297925 74.9637111,76.443349 C74.9637111,72.4578993 76.8603641,69.681005 78.5623605,69.681005 C80.2653553,69.681005 82.1630065,72.4578993 82.1630065,76.443349 M76.5,89 C81.2655901,89 85,83.5088256 85,76.4990061 C85,69.4911744 81.2655901,64 76.5,64 C71.7344099,64 68,69.4911744 68,76.4990061 C68,83.5088256 71.7344099,89 76.5,89" id="Fill-11"></path>
        </g>
    </g>
</svg>