<?xml version="1.0" encoding="UTF-8"?>
<svg width="130px" height="39px" viewBox="0 0 130 39" version="1.1" xmlns="http://www.w3.org/2000/svg" xmlns:xlink="http://www.w3.org/1999/xlink">
    <title>Logo Menu</title>
    <defs>
        <polygon id="path-1" points="0.3508 0.15 6.8088 0.15 6.8088 2.8767 0.3508 2.8767"></polygon>
        <polygon id="path-3" points="0 0.9946 9.8724 0.9946 9.8724 7.2986 0 7.2986"></polygon>
    </defs>
    <g id="Symbols" stroke="none" stroke-width="1" fill="none" fill-rule="evenodd">
        <g id="Menu/logout" transform="translate(-160.000000, -12.000000)">
            <g id="Logo-Menu" transform="translate(160.000000, 12.000000)">
                <path d="M2.5841,10.919 C2.8901,11.336 3.2871,11.767 3.6521,11.809 L3.7391,11.794 C3.7571,11.937 3.7881,12.077 3.8381,12.213 C3.9711,12.578 4.1481,12.874 4.3821,13.081 C4.0211,13.177 3.6791,13.049 3.6611,13.042 C3.6471,13.036 3.6321,13.031 3.6171,13.027 C3.3531,12.956 3.1461,12.807 3.1291,12.795 C3.1201,12.789 2.3081,12.227 2.5841,10.919 M4.4441,11.623 C4.5801,11.507 4.7141,11.329 4.8241,11.046 C4.8241,11.046 5.4101,9.707 5.7131,9.273 C5.7271,9.248 6.0251,8.672 5.8011,8.22 C6.4611,8.065 7.1591,7.935 7.5001,7.877 C7.5531,7.872 12.7911,7.38 14.8411,10.124 C15.8551,11.483 15.8321,13.522 14.9821,16.032 C14.9471,15.954 14.9081,15.867 14.8961,15.842 C13.1361,11.717 8.0491,12.242 7.9981,12.25 L5.3251,12.798 C5.1301,12.701 4.6771,12.434 4.5071,11.967 C4.4681,11.859 4.4491,11.743 4.4441,11.623" id="Fill-1" fill="#D9932A"></path>
                <path d="M15.0294,16.3116 C15.0294,16.3116 14.4104,11.0916 9.6764,11.3576 C9.6764,11.3576 7.2724,11.0896 4.7664,12.7286 L4.9434,13.1706 L8.7924,12.4626 L9.8974,12.5956 L10.6944,12.7726 L11.5354,13.0386 L12.1104,13.2146 L12.8184,13.7416 L13.7034,14.6306 L15.0294,16.3116 Z" id="Fill-3" fill="#A77D3B"></path>
                <path d="M2.2003,11.3575 C2.2003,11.3575 3.2533,12.9815 4.1023,12.7285 L4.5453,13.1275 C4.5453,13.1275 2.4663,13.6135 2.2003,12.5065 C1.9343,11.4015 2.2003,11.3575 2.2003,11.3575" id="Fill-5" fill="#A77D3B"></path>
                <path d="M13.9347,5.6709 C12.1487,6.8679 10.8297,7.1479 10.0537,7.1799 C9.7787,7.1499 9.5137,7.1299 9.2647,7.1159 C9.2617,7.1149 9.2547,7.1129 9.2547,7.1129 L9.2527,7.1159 C8.6237,7.0829 8.0977,7.0959 7.7557,7.1129 C7.8777,6.6389 8.4717,5.2289 11.3327,4.0769 L11.3887,4.0489 C11.5077,3.9769 14.4427,2.2199 18.7927,4.5119 L18.9717,4.6499 L19.7077,4.1639 C19.7357,4.1459 22.4947,2.3049 24.3487,3.9869 L24.3757,4.0099 C24.3897,4.0199 25.7617,5.0789 25.3697,6.7559 C25.1807,7.5599 24.9407,8.1709 24.6577,8.5729 L24.4767,8.8299 L24.8087,9.1769 L24.9317,9.3359 C26.9707,11.8869 27.3647,14.4339 27.3697,14.4679 C28.5837,21.6839 24.4967,27.5249 24.2227,27.9049 L23.8777,28.2559 C22.1227,28.7229 17.9567,29.3709 16.0157,25.7599 L16.0127,25.7609 C15.5687,24.5429 15.6827,23.4359 15.6837,23.4259 C16.0907,20.4779 15.7207,18.2979 15.3587,17.0239 C16.6237,13.8639 16.6157,11.3889 15.3287,9.6669 C15.1237,9.3949 14.8947,9.1509 14.6467,8.9319 C15.0807,8.4249 15.2807,7.8889 15.2427,7.3339 C15.2077,6.8489 14.9947,6.4439 14.7717,6.1469 L13.9347,5.6709 M13.5137,1.9489 C14.1677,1.6499 14.9497,1.6199 15.8517,2.0669 C15.8927,2.0259 16.4307,2.4469 16.8027,3.0009 C15.0287,2.5039 13.5207,2.6029 12.5247,2.8299 C12.7517,2.4959 13.0747,2.1509 13.5137,1.9489" id="Fill-7" fill="#B8773C"></path>
                <path d="M15.0304,17.0196 C15.0304,17.0196 16.7114,17.3296 16.8434,22.3286 L17.1534,24.0536 C17.1534,24.0536 17.6844,27.5486 21.4444,27.5486 C21.4444,27.5486 24.1434,27.5486 25.1164,27.0176 L24.3644,28.5666 C24.3644,28.5666 19.0114,30.2476 16.6674,27.5486 C16.6674,27.5486 14.9854,25.7346 15.0304,24.2306 L15.3404,21.6656 L15.2514,19.8506 L15.0304,17.0196 Z" id="Fill-9" fill="#8B5526"></path>
                <path d="M23.6124,8.5704 C23.6124,8.5704 25.6034,6.8884 24.4974,4.5894 C24.4974,4.5894 23.5684,3.2164 22.4184,3.1734 L24.2314,3.4384 L25.1164,4.1904 L25.4704,5.0754 L25.4704,6.0484 L25.4704,7.5524 L25.1164,8.5704 L25.1164,9.1004 L26.8414,11.3124 L27.5934,13.7024 L27.5934,15.2064 C27.5934,15.2064 26.6654,11.6224 23.6124,8.5704" id="Fill-11" fill="#8B5526"></path>
                <path d="M8.4317,20.8272 C8.4367,20.8292 9.0017,21.0502 9.3017,21.5392 C9.5137,21.8852 9.6587,22.4682 9.7497,22.9032 C9.1847,22.8772 7.7337,22.6922 6.4137,22.3922 L5.9667,22.3282 C5.6127,22.2912 3.2727,22.0582 1.5877,22.5982 C1.5867,22.5982 1.5877,22.5982 1.5877,22.5982 C1.1087,22.7522 0.8047,23.2262 0.4807,23.5222 C0.4317,23.2512 0.2857,22.2862 0.4307,21.5942 C0.4347,21.5712 0.7987,19.4002 3.3067,18.4312 L3.3327,18.4552 C3.8747,18.8622 4.5247,19.0682 5.2477,19.0682 C5.5427,19.0682 5.8527,19.0232 6.1697,18.9552 C6.4197,19.9512 7.8327,20.5672 8.4317,20.8272 M9.1677,25.2982 C8.6977,25.6092 7.9777,25.5592 7.0267,25.1492 L6.9777,25.1332 C6.9667,25.1292 5.9017,24.8052 4.1887,23.3192 L4.1577,23.2952 C4.1317,23.2772 3.6717,22.8902 3.2087,22.6672 C4.1767,22.5842 5.1447,22.6252 5.6537,22.6792 L6.0357,22.7332 C6.5587,22.8512 8.9877,23.4182 9.8497,23.4242 C9.8517,23.4782 9.8607,23.6372 9.8607,23.6922 C9.8607,23.7042 9.8597,24.8402 9.1677,25.2982" id="Fill-13" fill="#F6921E"></path>
                <path d="M11.9786,16.2911 C14.1056,16.2641 14.2266,18.0301 14.2266,18.0301 C14.2266,18.0301 14.4556,20.5061 11.9916,20.7701 C11.9916,20.7701 12.4666,21.3711 13.7016,20.9451 C13.7016,20.9451 13.4486,22.3591 12.2286,22.6791 C12.2286,22.6791 12.8086,23.2411 14.0426,22.9371 C14.0426,22.9371 13.0256,25.1841 10.8996,24.6361 C10.8996,24.6361 10.0826,24.4731 10.0556,24.1691 C10.1306,23.8141 10.1296,23.5411 10.1296,23.5161 C10.1186,22.6041 9.9136,21.8111 9.5206,21.1551 C9.4436,21.0261 9.3526,20.9161 9.2596,20.8151 L10.4406,19.4831 C10.6326,19.2591 10.7936,18.9681 10.8666,18.5921 C10.9116,18.4311 11.1126,17.6011 10.7366,16.7061 C10.7366,16.7061 10.3636,16.3121 11.9786,16.2911" id="Fill-15" fill="#961B1E"></path>
                <polygon id="Fill-17" fill="#ED2A24" points="5.3732 24.3916 6.1902 25.1786 7.9482 25.5406 8.7122 25.6356 9.8702 27.4426 10.2222 29.6176 10.2222 32.1016 8.7712 33.4336 7.3112 33.4336 5.8292 33.0526 4.8262 32.1486 4.2792 30.9586 4.1252 29.1526 5.1852 27.4426 5.3732 25.9056"></polygon>
                <path d="M8.0196,33.2032 C10.0246,30.9222 6.9886,25.6612 6.9576,25.6182 L8.3456,25.5102 C8.4826,25.7082 11.6806,30.3972 9.2706,33.0912 L9.2416,33.1202 C9.1936,33.1632 8.3166,33.9292 6.9576,33.9292" id="Fill-19" fill="#8F191C"></path>
                <path d="M23.2696,29.6875 C23.1226,31.8285 24.5156,33.3725 25.0946,34.1395 C22.8626,34.4105 20.5916,33.1705 20.5686,33.1575 L20.3006,32.9995 L20.0916,33.2285 C19.3896,34.0005 19.1036,35.3095 18.9636,35.9245 C17.8026,35.8605 15.8366,34.6215 15.6756,34.5445 L15.5646,34.4585 L15.4436,34.5005 C13.9416,35.1095 12.8496,36.9615 12.2876,37.6195 C11.3146,37.3755 9.8386,36.2915 9.3296,35.8955 L9.1926,35.7895 L9.0226,35.8225 C8.9176,35.8425 6.8866,36.3905 5.6436,38.2465 C4.7846,37.8545 2.0106,36.2355 3.1576,32.3825 C3.1576,32.3825 2.3836,36.0985 5.8296,36.8605 C5.8296,36.8605 8.5936,34.6705 9.8726,34.6075 C9.8726,34.6075 11.4846,36.2415 11.9356,36.2175 C11.9356,36.2175 13.9346,33.5525 15.4336,32.9585 C15.4336,32.9585 17.4096,34.2045 18.1946,34.1395 C18.1946,34.1395 18.7656,32.1965 19.8356,31.5535 C19.8356,31.5535 22.2876,32.7675 22.6676,32.6725 C22.6676,32.6725 23.2796,30.0155 23.2696,29.6875" id="Fill-21" fill="#BABBBF"></path>
                <g id="Group-25" transform="translate(11.000000, 0.849900)">
                    <mask id="mask-2" fill="white">
                        <use xlink:href="#path-1"></use>
                    </mask>
                    <g id="Clip-24"></g>
                    <path d="M1.0958,2.8767 L0.3508,2.7197 C0.3998,2.4657 0.9088,1.0457 2.1408,0.4367 C3.0298,-0.0043 4.0688,0.0637 5.2268,0.6377 C5.2828,0.6667 6.4368,1.2807 6.8088,2.6257 L6.0748,2.8287 C5.7928,1.8117 4.8898,1.3207 4.8808,1.3157 C3.9788,0.8697 3.1858,0.7937 2.5318,1.0937 C1.4878,1.5727 1.0998,2.8637 1.0958,2.8767" id="Fill-23" fill="#231F20" mask="url(#mask-2)"></path>
                </g>
                <path d="M24.462,6.4629 C24.462,6.4629 24.332,4.9289 22.943,4.6899 C22.215,4.5639 21.89,4.6079 20.983,5.0029 C20.453,5.3259 20.146,5.6469 20.146,5.6469 C20.146,5.6469 23.064,4.5539 24.462,6.4629" id="Fill-26" fill="#231F20"></path>
                <path d="M5.9689,38.8497 L5.6719,38.7527 C5.6269,38.7387 1.1619,37.2147 2.7099,31.9787 C2.7489,31.7867 3.0539,30.4587 4.3139,28.4687 C4.4119,28.2577 5.3129,26.2827 5.1969,24.7077 L5.9569,24.6517 C6.0939,26.5147 5.0349,28.7257 4.9899,28.8197 L4.9689,28.8577 C3.7119,30.8387 3.4569,32.1267 3.4549,32.1397 L3.4459,32.1787 C2.2989,36.0317 4.7749,37.5267 5.6349,37.9177 C6.8779,36.0627 8.9089,35.5147 9.0129,35.4947 L9.1829,35.4607 L9.3199,35.5677 C9.8289,35.9627 11.3059,37.0477 12.2789,37.2907 C12.8399,36.6337 13.9329,34.7807 15.4349,34.1717 L15.5559,34.1297 L15.6669,34.2167 C15.8279,34.2927 17.7929,35.5327 18.9549,35.5967 C19.0939,34.9817 19.3809,33.6727 20.0819,32.9007 L20.2909,32.6707 L20.5589,32.8287 C20.5819,32.8427 22.3689,34.1047 24.6019,33.8347 C24.0219,33.0677 23.1139,31.4987 23.2609,29.3597 L24.0209,29.4117 C23.8359,32.0857 25.5659,33.7967 25.5829,33.8137 L26.0709,34.2867 L25.4129,34.4567 C23.1519,35.0407 21.2609,34.0507 20.4649,33.6447 C19.9459,34.3937 19.6359,35.6397 19.5549,36.1017 L19.4589,36.5037 L19.1679,36.5297 C17.8569,36.6437 16.1139,35.4927 15.4869,35.2227 C14.6859,35.5047 13.5309,36.9737 12.7179,37.9517 L12.5819,38.1157 L12.3709,38.0847 C11.2049,37.9197 9.5049,36.6577 8.9999,36.2807 C8.4569,36.4237 6.9749,37.0697 6.1219,38.5787 L5.9689,38.8497 Z" id="Fill-28" fill="#231F20"></path>
                <path d="M20.3146,14.0791 L21.8326,14.0791 C22.2286,14.0791 22.4746,13.8611 22.4746,13.4741 L22.4746,12.7381 L22.1496,12.7381 L22.1496,13.4671 C22.1496,13.7021 22.0436,13.7941 21.7506,13.7941 L20.3986,13.7941 C20.0956,13.7941 19.9996,13.7021 19.9996,13.4671 L19.9996,12.7381 L19.6716,12.7381 L19.6716,13.4741 C19.6716,13.8611 19.9116,14.0791 20.3146,14.0791" id="Fill-30" fill="#231F20"></path>
                <path d="M19.7677,12.8331 L19.7677,13.4751 C19.7677,13.8031 19.9617,13.9841 20.3147,13.9841 L21.8317,13.9841 C22.1847,13.9841 22.3787,13.8031 22.3787,13.4751 L22.3787,12.8331 L22.2457,12.8331 L22.2457,13.4671 C22.2457,13.8411 21.9807,13.8891 21.7497,13.8891 L20.3987,13.8891 C20.0517,13.8891 19.9037,13.7631 19.9037,13.4671 L19.9037,12.8331 L19.7677,12.8331 Z M21.8317,14.1751 L20.3147,14.1751 C19.8527,14.1751 19.5777,13.9131 19.5777,13.4751 L19.5777,12.6431 L20.0937,12.6431 L20.0937,13.4671 C20.0937,13.6281 20.1227,13.6981 20.3987,13.6981 L21.7497,13.6981 C22.0117,13.6981 22.0547,13.6301 22.0547,13.4671 L22.0547,12.6431 L22.5697,12.6431 L22.5697,13.4751 C22.5697,13.9061 22.2877,14.1751 21.8317,14.1751 L21.8317,14.1751 Z" id="Fill-32" fill="#231F20"></path>
                <polygon id="Fill-34" fill="#231F20" points="19.9894 15.7901 22.4744 15.7901 22.4744 15.5181 19.9894 15.5181 19.9894 14.9981 22.4744 14.9981 22.4744 14.7261 19.6724 14.7261 19.6724 16.1961 19.9894 16.1961"></polygon>
                <path d="M19.7667,16.1006 L19.8947,16.1006 L19.8947,15.6956 L22.3797,15.6956 L22.3797,15.6126 L19.8947,15.6126 L19.8947,14.9036 L22.3797,14.9036 L22.3797,14.8216 L19.7667,14.8216 L19.7667,16.1006 Z M20.0847,16.2906 L19.5767,16.2906 L19.5767,14.6296 L22.5707,14.6296 L22.5707,15.0936 L20.0847,15.0936 L20.0847,15.4216 L22.5707,15.4216 L22.5707,15.8856 L20.0847,15.8856 L20.0847,16.2906 Z" id="Fill-36" fill="#231F20"></path>
                <path d="M21.8966,21.4375 C21.7746,21.4375 21.6386,21.6555 21.6386,21.9475 C21.6386,22.2395 21.7746,22.4575 21.8966,22.4575 C22.0186,22.4575 22.1556,22.2395 22.1556,21.9475 C22.1556,21.6555 22.0186,21.4375 21.8966,21.4375" id="Fill-38" fill="#231F20"></path>
                <path d="M21.7452,20.0625 C21.2672,20.0625 20.7342,20.8455 20.7342,21.9695 C20.7342,23.0925 21.2672,23.8755 21.7452,23.8755 C22.2242,23.8755 22.7562,23.0925 22.7562,21.9695 C22.7562,20.8455 22.2242,20.0625 21.7452,20.0625 M21.7452,24.6385 C20.7522,24.6385 19.9732,23.4655 19.9732,21.9695 C19.9732,20.4725 20.7522,19.3005 21.7452,19.3005 C22.7392,19.3005 23.5172,20.4725 23.5172,21.9695 C23.5172,23.4655 22.7392,24.6385 21.7452,24.6385" id="Fill-40" fill="#231F20"></path>
                <path d="M7.6808,34.1397 C7.2548,34.1397 6.7808,34.0617 6.2698,33.8577 C6.1708,33.8127 4.2088,32.9057 3.9008,31.1597 C3.8918,31.0937 3.7368,29.8667 4.5688,27.8297 L5.2748,28.1187 C4.5178,29.9677 4.6528,31.0317 4.6538,31.0417 C4.8908,32.3817 6.5518,33.1487 6.5698,33.1567 C8.1528,33.7897 9.2968,32.8697 9.4328,32.7537 C11.4368,30.3857 8.4648,25.8657 8.4348,25.8207 L9.0688,25.3977 C9.2058,25.6037 12.4038,30.4737 9.9938,33.2707 L9.9638,33.3007 C9.9168,33.3447 9.0388,34.1397 7.6808,34.1397" id="Fill-42" fill="#231F20"></path>
                <path d="M8.9171,20.8321 C8.9171,20.8321 9.8631,21.3721 11.8441,18.9451 C11.8441,18.9451 9.6681,20.1541 8.5631,20.0851" id="Fill-44" fill="#231F20"></path>
                <path d="M4.6427,18.6973 C4.6427,18.6973 3.6597,17.9903 4.9307,16.6513 C4.9307,16.6513 4.2077,18.1883 5.3727,18.4843" id="Fill-46" fill="#231F20"></path>
                <path d="M9.9679,23.6338 C9.9679,23.6338 9.8949,25.0478 11.7999,24.9238 C11.7999,24.9238 10.5839,24.6118 10.4199,22.9038" id="Fill-48" fill="#231F20"></path>
                <path d="M7.2706,25.6973 C7.2706,25.6973 7.5916,25.9763 6.4556,27.4423 C6.4556,27.4423 6.6746,25.7013 5.8296,25.1783" id="Fill-50" fill="#231F20"></path>
                <path d="M4.0997,13.8457 C3.7547,13.8457 3.4817,13.7567 3.3977,13.7267 C3.0067,13.6167 2.7247,13.4117 2.6937,13.3887 C2.1567,13.0317 1.3147,11.8447 2.0837,9.9947 L2.7877,10.2877 C2.0637,12.0277 3.1207,12.7587 3.1317,12.7657 C3.1487,12.7777 3.3527,12.9247 3.6157,12.9957 C3.6297,12.9997 3.6447,13.0047 3.6597,13.0107 C3.6817,13.0187 4.2617,13.2397 4.7087,12.8817 L5.1847,13.4767 C4.8247,13.7647 4.4287,13.8457 4.0997,13.8457" id="Fill-52" fill="#231F20"></path>
                <path d="M21.8351,29.7608 C19.5071,29.7608 17.7271,29.1548 16.5271,27.9488 C14.6511,26.0628 14.9331,23.4348 14.9451,23.3238 C15.5751,18.7578 14.2341,16.0958 14.2211,16.0698 L14.2081,16.0428 C13.5771,14.5568 12.3631,13.5898 10.5971,13.1688 C9.3221,12.8648 8.1971,12.9668 8.0611,12.9808 L5.2331,13.5618 L5.1301,13.5228 C5.0891,13.5078 4.1191,13.1348 3.7811,12.2068 C3.5611,11.6038 3.6561,10.9288 4.0661,10.2008 L4.7311,10.5738 C4.4351,11.0998 4.3561,11.5608 4.4961,11.9458 C4.6651,12.4068 5.1141,12.6728 5.3081,12.7688 L7.9561,12.2258 C8.0071,12.2188 13.1601,11.6458 14.9041,15.7328 C15.0301,15.9818 16.3491,18.7288 15.7011,23.4198 C15.7001,23.4308 15.5861,24.5378 16.0311,25.7548 L16.0331,25.7538 C18.5171,30.3738 24.6411,28.0238 24.7021,27.9988 L24.7581,27.9818 C24.8381,27.9628 25.2511,27.8858 25.5401,28.1328 C25.7051,28.2738 25.7871,28.4868 25.7721,28.7318 C25.7541,28.9938 25.7411,29.1998 23.6041,29.6548 L23.5661,29.6598 C22.9591,29.7278 22.3821,29.7608 21.8351,29.7608" id="Fill-54" fill="#231F20"></path>
                <path d="M24.3976,28.8282 L23.8536,28.2942 L24.2406,27.9002 C24.5136,27.5192 28.6016,21.6782 27.3866,14.4622 C27.3816,14.4282 26.9886,11.8812 24.9496,9.3302 L24.8266,9.1712 L24.4946,8.8242 L24.6756,8.5672 C24.9596,8.1662 25.1986,7.5552 25.3866,6.7502 C25.7806,5.0732 24.4076,4.0152 24.3936,4.0042 L24.3676,3.9822 C22.5116,2.2992 19.7526,4.1402 19.7256,4.1592 L18.9256,4.7082 L18.7216,4.6002 C14.3716,2.3092 11.5256,3.9722 11.4066,4.0432 L11.3506,4.0712 C7.8726,5.4722 7.7436,7.2572 7.7426,7.2752 L7.7106,7.6112 L6.9526,7.5372 L6.9816,7.2332 C6.9956,6.9922 7.2266,4.9202 11.0396,3.3752 C11.3916,3.1722 14.4176,1.5712 18.8716,3.8212 L19.2956,3.5292 C19.3306,3.5062 20.1166,2.9772 21.1816,2.6902 C22.6356,2.2982 23.9106,2.5462 24.8676,3.4072 C25.0516,3.5522 26.6146,4.8512 26.1276,6.9252 C25.9506,7.6862 25.7316,8.2862 25.4626,8.7492 L25.5476,8.8592 C27.7186,11.5752 28.1236,14.2322 28.1396,14.3442 C29.4436,22.0922 25.0256,28.1222 24.8366,28.3752 L24.8036,28.4142 L24.3976,28.8282 Z" id="Fill-56" fill="#231F20"></path>
                <path d="M15.3282,17.1397 L14.6232,16.8517 C15.8302,13.8997 15.8682,11.6347 14.7362,10.1187 C12.7062,7.3997 7.5152,7.8877 7.4632,7.8927 C6.8472,7.9967 5.0522,8.3407 4.4582,8.6287 L4.1252,7.9437 C4.9392,7.5487 7.2632,7.1547 7.3612,7.1377 C7.6162,7.1117 13.0562,6.5967 15.3462,9.6617 C16.6492,11.4067 16.6442,13.9217 15.3282,17.1397" id="Fill-58" fill="#231F20"></path>
                <path d="M21.1661,19.2227 C20.2861,19.2227 19.5421,20.4887 19.5421,21.9857 C19.5421,23.4827 20.2861,24.7477 21.1661,24.7477 C22.0471,24.7477 22.7901,23.4827 22.7901,21.9857 C22.7901,20.4887 22.0471,19.2227 21.1661,19.2227 M21.1661,25.5097 C19.8281,25.5097 18.7801,23.9617 18.7801,21.9857 C18.7801,20.0087 19.8281,18.4607 21.1661,18.4607 C22.5041,18.4607 23.5531,20.0087 23.5531,21.9857 C23.5531,23.9617 22.5041,25.5097 21.1661,25.5097" id="Fill-60" fill="#231F20"></path>
                <path d="M2.7452,9.5303 C2.7602,8.9683 3.8362,8.7063 3.8362,8.7063 C5.0072,8.4913 5.0252,9.1113 5.0252,9.1113 C3.5552,8.5513 2.7452,9.5303 2.7452,9.5303 M5.7732,8.2163 C5.6382,7.9593 5.3632,7.8053 4.9472,7.7593 C4.9472,7.7593 4.8632,7.7553 4.7102,7.7643 C4.4002,7.7863 3.7622,7.8703 2.9742,8.1963 C2.9442,8.2063 2.2302,8.4463 1.9872,9.0383 C1.8542,9.3603 1.8872,9.7173 2.0852,10.1043 C2.0852,10.1043 2.9322,11.7073 3.6492,11.7883 L3.9012,11.8173 C4.1402,11.8013 4.5462,11.7163 4.8112,11.0323 C4.8112,11.0323 5.3912,9.7063 5.6922,9.2753 C5.7052,9.2513 6.0112,8.6673 5.7732,8.2163" id="Fill-62" fill="#231F20"></path>
                <path d="M7.9483,14.9258 L8.1473,14.3638 C8.2583,14.0488 8.3763,13.4358 8.2243,13.1298 C8.1823,13.0458 8.1243,12.9948 8.0333,12.9668 L8.2663,12.2408 C8.5533,12.3328 8.7743,12.5248 8.9083,12.7928 C9.0943,13.1718 9.0773,13.6488 9.0153,14.0218 C10.0733,13.7588 10.0933,13.0448 10.0893,12.9638 L10.8273,12.9838 C10.8323,13.0298 10.8623,13.4488 10.5683,13.8918 C10.2003,14.4468 9.5183,14.7768 8.5433,14.8688 L7.9483,14.9258 Z" id="Fill-64" fill="#231F20"></path>
                <path d="M12.7706,7.7637 C12.6436,7.7637 12.5416,7.6607 12.5416,7.5347 C12.5416,7.4077 12.6436,7.3047 12.7706,7.3047 C12.8966,7.3047 12.9996,7.4077 12.9996,7.5347 C12.9996,7.6607 12.8966,7.7637 12.7706,7.7637 M18.7926,6.5937 C18.7926,6.5937 17.3236,3.6307 13.9536,5.6647 C10.9796,7.6577 9.2896,7.1137 9.2726,7.1077 L8.9736,7.6697 C9.0046,7.6807 9.3016,7.7187 9.8326,7.7237 C10.2756,7.7277 10.8786,7.7397 11.6256,7.5847 C11.6716,7.9537 12.3806,8.2117 12.8266,8.2117 C13.2876,8.2117 13.6606,7.8967 13.6606,7.5077 C13.6606,7.2937 13.5446,7.1057 13.3686,6.9767 C13.6166,6.8537 13.8746,6.7107 14.1406,6.5457 C14.3066,6.7557 14.4766,7.0457 14.4996,7.3807 C14.5276,7.7867 14.3326,8.2007 13.9186,8.6087 L14.4556,9.1517 C15.0336,8.5787 15.3036,7.9657 15.2596,7.3277 C15.2256,6.8437 15.0116,6.4387 14.7896,6.1417 C15.3996,5.8477 17.0236,5.3157 18.7926,6.5937" id="Fill-66" fill="#231F20"></path>
                <path d="M7.753,19.2364 C7.626,19.2364 7.524,19.1334 7.524,19.0074 C7.524,18.8804 7.626,18.7774 7.753,18.7774 C7.879,18.7774 7.982,18.8804 7.982,19.0074 C7.982,19.1334 7.879,19.2364 7.753,19.2364 M10.836,16.1454 L10.208,16.5764 C10.785,17.4184 10.516,18.3094 10.505,18.3454 L10.492,18.3934 C10.343,19.2004 9.499,19.4284 9.473,19.4354 C9.341,19.4654 9.124,19.5034 8.869,19.5294 C8.983,19.2554 9.028,18.9794 8.996,18.7054 C8.917,18.0234 8.413,17.6324 8.356,17.5904 L7.9,18.2024 C7.901,18.2024 7.943,18.2354 7.998,18.2964 C7.937,18.2834 7.874,18.2754 7.81,18.2754 C7.349,18.2754 6.605,18.6324 6.605,19.0204 C6.605,19.2374 6.836,19.4194 7.121,19.5374 L6.867,20.0444 C7.294,20.2574 7.824,20.3214 8.307,20.3214 C9.004,20.3214 9.604,20.1874 9.649,20.1764 C9.704,20.1634 10.987,19.8314 11.237,18.5534 C11.294,18.3604 11.576,17.2234 10.836,16.1454" id="Fill-68" fill="#231F20"></path>
                <g id="Group-73" transform="translate(3.000000, 12.849900)">
                    <path d="M0.2482,0.3289 C0.2482,0.3289 -0.0628,1.5699 1.0632,2.2289" id="Fill-70" fill="#231F20"></path>
                    <path d="M0.2482,0.3289 C0.2482,0.3289 -0.0628,1.5699 1.0632,2.2289" id="Stroke-72" stroke="#231F20" stroke-width="3"></path>
                </g>
                <path d="M9.9679,22.9034 C9.9679,22.9034 9.9579,21.1234 8.5629,20.6444 C8.5629,20.6444 6.4669,19.6994 6.1699,18.9554 C6.1699,18.9554 6.8579,20.9974 8.5629,21.9474 C8.5629,21.9474 1.7749,20.7124 0.6399,23.2264 L1.0479,23.2264 L1.2849,22.9034 L2.7199,22.9034 L4.2799,23.5224 L5.3729,24.6514 L7.7459,25.4994 L9.3899,25.1784 L9.8609,24.3914 L10.1089,23.8454 L9.9679,22.9034 Z" id="Fill-74" fill="#C86527"></path>
                <g id="Group-78" transform="translate(0.000000, 16.849900)">
                    <mask id="mask-4" fill="white">
                        <use xlink:href="#path-3"></use>
                    </mask>
                    <g id="Clip-77"></g>
                    <path d="M0.9054,7.2986 L0.5554,7.1116 C0.4134,7.0336 -0.2786,6.5556 0.1244,4.6326 C0.1364,4.5456 0.5544,2.0006 3.5504,0.9946 L3.7934,1.7176 C1.2334,2.5766 0.8774,4.7456 0.8744,4.7676 C0.7384,5.4156 0.7454,5.8276 0.7914,6.0826 C2.1624,4.8276 5.5724,5.1426 6.0004,5.1876 L6.4184,5.2476 C7.8134,5.5646 9.4464,5.8666 9.7644,5.8196 L9.8724,6.5736 C9.2594,6.6576 6.7954,6.1146 6.2644,5.9946 L5.9064,5.9436 C4.8444,5.8316 1.6444,5.7736 1.0784,6.9416 L0.9054,7.2986 Z" id="Fill-76" fill="#231F20" mask="url(#mask-4)"></path>
                </g>
                <path d="M8.3644,26.0372 C7.8954,26.0372 7.3634,25.9102 6.7704,25.6562 C6.5824,25.5972 5.5224,25.2172 3.9114,23.8242 C3.7864,23.7402 2.8424,23.1202 1.9114,23.0732 L1.9494,22.3122 C3.1674,22.3732 4.3154,23.1772 4.3644,23.2112 L4.3934,23.2342 C5.9984,24.6252 6.9974,24.9302 7.0074,24.9332 L7.0524,24.9482 C7.9434,25.3322 8.6184,25.3792 9.0584,25.0872 C9.7064,24.6582 9.7074,23.5942 9.7074,23.5832 C9.6974,22.7952 9.5214,22.1162 9.1844,21.5662 C8.9034,21.1072 8.3744,20.9002 8.3684,20.8982 C7.7204,20.6172 6.0504,19.8912 6.2244,18.6832 L6.9784,18.7932 C6.9374,19.0812 7.1934,19.5582 8.6534,20.1922 C8.6664,20.1962 9.4124,20.4802 9.8344,21.1682 C10.2434,21.8362 10.4584,22.6452 10.4694732,23.5752 C10.4704,23.6362 10.4744,25.0582 9.4834,25.7202 C9.1664,25.9312 8.7924,26.0372 8.3644,26.0372" id="Fill-79" fill="#231F20"></path>
                <path d="M15.5235,24.2588 C15.3945,24.5588 13.9615,25.0358 13.9615,25.0358 C12.1565,25.5178 10.3395,24.2058 10.3225,24.1928 L9.8705,24.8068 C9.9425,24.8598 11.3835,25.9048 13.1215,25.9048 C13.4565,25.9048 13.8015,25.8658 14.1515,25.7748 C14.1515,25.7748 15.4805,25.2448 15.5875,25.1158 C15.6955,24.9878 15.5235,24.2588 15.5235,24.2588" id="Fill-81" fill="#231F20"></path>
                <path d="M13.5187,16.7149 C13.0577,16.5739 12.5427,16.5109 11.9847,16.5059 C10.7327,16.5099 9.6197,17.3189 9.6067,17.3269 L8.4427,18.1809 C8.4057,18.2069 7.5817,18.7969 6.5137,19.0899 C6.1217,19.1979 5.7447,19.2519 5.3867,19.2519 C4.7077,19.2519 4.0997,19.0589 3.5927,18.6769 L3.5437,18.6339 C3.5197,18.6079 2.9347,17.9739 3.0627,16.9049 C3.2207,15.5929 3.7977,14.1529 5.8627,12.8139 L6.4997,13.2619 C4.1937,14.7589 3.9197,16.2359 3.8227,16.9729 C3.7397,17.6049 4.0077,17.9969 4.0827,18.0919 C4.3527,18.4819 5.4147,18.6019 6.3117,18.3559 C7.2427,18.0999 7.9867,17.5689 7.9947,17.5639 L9.1737,16.6999 C9.1737,16.6999 11.2627,15.0899 13.5187,16.7149" id="Fill-83" fill="#231F20"></path>
                <path d="M65.1983,14.5743 C65.1983,16.9463 63.6843,18.2883 61.2553,18.2883 L51.9453,18.2883 C49.4703,18.2883 48.0033,16.9463 48.0033,14.5743 L48.0033,10.0563 L50.0093,10.0563 L50.0093,14.5273 C50.0093,15.9723 50.6053,16.5333 52.4623,16.5333 L60.7503,16.5333 C62.5503,16.5333 63.2043,15.9723 63.2043,14.5273 L63.2043,10.0563 L65.1983,10.0563 L65.1983,14.5743 Z" id="Fill-85" fill="#231F20"></path>
                <path d="M83.7638,14.1729 C84.4628,14.1729 84.8648,13.7359 84.8648,12.9229 C84.8648,12.1549 84.4748,11.7309 83.7638,11.7309 L71.8198,11.7309 L71.8198,14.1729 L83.7638,14.1729 Z M71.8198,15.8469 L71.8198,18.0809 L69.8698,18.0809 L69.8698,10.0569 L83.7638,10.0569 C85.6908,10.0569 86.9158,11.2149 86.9158,12.9009 C86.9158,13.9999 86.4468,14.9289 85.4148,15.4219 L87.1118,18.0809 L84.8408,18.0809 L83.3978,15.8469 L71.8198,15.8469 Z" id="Fill-87" fill="#231F20"></path>
                <path d="M93.0792,15.376 C93.0792,16.396 93.4222,16.671 95.5442,16.671 L103.8782,16.671 C105.7572,16.671 106.1472,16.5 106.1472,15.812 C106.1472,14.997 104.9892,14.883 99.1322,14.814 C93.7322,14.745 91.2442,14.7 91.2442,12.441 C91.2442,10.733 91.9772,9.851 94.9812,9.851 L104.5422,9.851 C107.0762,9.851 108.1532,10.985 108.1422,12.763 L106.0892,12.763 C106.1002,11.88 105.6542,11.479 103.9692,11.479 L95.5542,11.479 C93.6282,11.479 93.2842,11.673 93.2842,12.304 C93.2842,13.083 94.9122,13.187 100.0362,13.244 C106.7202,13.313 108.2332,13.302 108.1762,15.709 C108.1532,16.775 107.9922,18.288 104.4502,18.288 L94.9702,18.288 C91.8172,18.288 91.0382,17.336 91.0382,15.376 L93.0792,15.376 Z" id="Fill-89" fill="#231F20"></path>
                <path d="M124.4269,16.5801 C126.3749,16.5801 127.3839,15.6851 127.3839,14.0691 C127.3839,12.4521 126.3749,11.5591 124.4269,11.5591 L117.2039,11.5591 C115.2549,11.5591 114.2459,12.4521 114.2459,14.0691 C114.2459,15.6851 115.2549,16.5801 117.2039,16.5801 L124.4269,16.5801 Z M124.7699,9.8511 C127.8309,9.8511 129.4129,11.3171 129.4129,14.0691 C129.4129,16.8201 127.8309,18.2881 124.7699,18.2881 L116.8609,18.2881 C113.7999,18.2881 112.2179,16.8201 112.2179,14.0691 C112.2179,11.3171 113.7999,9.8511 116.8609,9.8511 L124.7699,9.8511 Z" id="Fill-91" fill="#231F20"></path>
                <polygon id="Fill-93" fill="#231F20" points="50.0665 25.7354 55.0755 25.7354 55.0755 27.3874 50.0665 27.3874 50.0665 30.4244 48.1175 30.4244 48.1175 22.3994 55.8785 22.3994 55.8785 24.0614 50.0665 24.0614"></polygon>
                <path d="M71.379,26.5157 C72.079,26.5157 72.481,26.0797 72.481,25.2657 C72.481,24.4977 72.091,24.0737 71.379,24.0737 L59.435,24.0737 L59.435,26.5157 L71.379,26.5157 Z M59.435,28.1897 L59.435,30.4247 L57.486,30.4247 L57.486,22.3997 L71.379,22.3997 C73.306,22.3997 74.532,23.5577 74.532,25.2437 C74.532,26.3437 74.062,27.2717 73.03,27.7657 L74.727,30.4247 L72.457,30.4247 L71.013,28.1897 L59.435,28.1897 Z" id="Fill-95" fill="#231F20"></path>
                <path d="M80.6817,24.3252 L79.0077,27.4902 L82.3787,27.4902 L80.6817,24.3252 Z M78.1837,29.0832 L77.4947,30.4252 L75.4437,30.4252 L79.5817,22.3992 L81.7377,22.3992 L86.0017,30.4252 L83.9267,30.4252 L83.2147,29.0832 L78.1837,29.0832 Z" id="Fill-97" fill="#231F20"></path>
                <polygon id="Fill-99" fill="#231F20" points="104.4845 30.4249 102.5585 30.4249 89.2385 24.3369 89.2385 30.4249 87.2895 30.4249 87.2895 22.3999 89.2035 22.3999 102.5355 28.5109 102.5355 22.3999 104.4845 22.3999"></polygon>
                <path d="M110.9669,22.1934 L112.4569,22.1934 C115.4139,22.1934 116.8819,23.1684 116.870961,25.1394 L114.8189,25.1394 C114.8299,24.2924 113.9129,23.8554 112.1129,23.8554 L111.3109,23.8554 C109.3729,23.8554 108.3529,24.7264 108.3529,26.4124 C108.3529,28.0974 109.3729,28.9684 111.3109,28.9684 L112.1129,28.9684 C113.8899,28.9684 114.8069,28.4534 114.8189,27.4444 L110.7949,27.4214 L110.7949,25.9884 L116.870961,25.9884 L116.870961,27.3974 C116.870961,29.5304 115.3799,30.6314 112.4569,30.6314 L110.9669,30.6314 C107.8949,30.6314 106.3239,29.1974 106.3239,26.4124 C106.3239,23.6274 107.8949,22.1934 110.9669,22.1934" id="Fill-101" fill="#231F20"></path>
                <path d="M124.2677,28.9688 C126.2047,28.9568 127.2257,28.0978 127.2257,26.4118 C127.2257,24.7158 126.2047,23.8558 124.2677,23.8558 L123.4657,23.8558 C121.5287,23.8558 120.5077,24.7158 120.5077,26.4118 C120.5077,28.0978 121.5287,28.9568 123.4657,28.9688 L124.2677,28.9688 Z M124.6127,22.1938 C127.6847,22.1938 129.2537,23.6268 129.2537,26.4118 C129.2537,29.1978 127.6847,30.6308 124.6127,30.6308 L123.1217,30.6308 C120.0487,30.6308 118.4787,29.1978 118.4787,26.4118 C118.4787,23.6268 120.0487,22.1938 123.1217,22.1938 L124.6127,22.1938 Z" id="Fill-103" fill="#231F20"></path>
            </g>
        </g>
    </g>
</svg>