<?xml version="1.0" encoding="utf-8"?>
<!-- Generator: Adobe Illustrator 25.0.1, SVG Export Plug-In . SVG Version: 6.00 Build 0)  -->
<svg version="1.1" id="Layer_1" xmlns="http://www.w3.org/2000/svg" xmlns:xlink="http://www.w3.org/1999/xlink" x="0px" y="0px"
	 viewBox="0 0 130 39" style="enable-background:new 0 0 130 39;" xml:space="preserve">
<style type="text/css">
	.st0{fill:#FFFFFF;}
	.st1{fill:#D9932A;stroke:#D9932A;stroke-linecap:round;stroke-linejoin:round;stroke-miterlimit:10;}
	.st2{fill:#A77D3B;}
	.st3{fill:#B8773C;stroke:#B8773C;stroke-miterlimit:10;}
	.st4{fill:#8B5526;}
	.st5{fill:#F6921E;}
	.st6{fill:#961B1E;}
	.st7{fill:#ED2A24;}
	.st8{fill:#8F191C;}
	.st9{fill:#BABBBF;}
	.st10{fill:#231F20;}
	.st11{fill:#C86527;}
</style>
<g>
	<g>
		<g>
			<path class="st0" d="M10.1,12.6c0,0.2-0.2,0.7-1.1,1c0.1-0.3,0.1-0.7,0-1.1C9.3,12.5,9.7,12.5,10.1,12.6z"/>
		</g>
		<g>
			<path class="st0" d="M14.1,8c-0.2-0.2-0.5-0.3-0.7-0.4c0.2-0.1,0.3-0.3,0.3-0.6c0-0.2-0.1-0.4-0.3-0.5c0.2-0.1,0.5-0.3,0.8-0.4
				c0.2,0.2,0.3,0.5,0.4,0.8C14.6,7.3,14.4,7.6,14.1,8z"/>
		</g>
		<g>
			<path class="st0" d="M13.1,7.1c0,0.1-0.1,0.2-0.2,0.2c-0.1,0-0.2-0.1-0.2-0.2s0.1-0.2,0.2-0.2C12.9,6.8,13.1,6.9,13.1,7.1z"/>
		</g>
		<g>
			<path class="st0" d="M8,18.6c0,0.1-0.1,0.2-0.2,0.2s-0.2-0.1-0.2-0.2s0.1-0.2,0.2-0.2C7.9,18.3,8,18.5,8,18.6z"/>
		</g>
		<g>
			<path class="st0" d="M24.7,33.5c-2.2,0.3-4-1-4.1-1l-0.3-0.2l-0.2,0.2c-0.7,0.8-1,2.1-1.1,2.7c-1.2-0.1-3.1-1.3-3.3-1.4l-0.1-0.1
				h-0.1c-1.5,0.6-2.6,2.5-3.2,3.1c-1-0.2-2.5-1.3-3-1.7L9.2,35H9c-0.1,0-2.1,0.6-3.4,2.4c-0.7-0.3-2.5-1.4-2.5-3.9
				c0-0.6,0.1-1.2,0.3-1.9l0,0c0,0,0.1-0.5,0.4-1.3c0,0.2,0,0.3,0,0.3c0.3,1.8,2.3,2.7,2.4,2.7c0.5,0.2,1,0.3,1.4,0.3
				c1.4,0,2.2-0.8,2.3-0.8l0,0c2-2.4,0.1-6.2-0.7-7.5c0.1,0,0.1-0.1,0.2-0.1c0.3-0.2,0.5-0.5,0.7-0.7c0.5,0.3,1.7,0.9,3,0.9
				c0.3,0,0.7,0,1-0.1c0,0,0.5-0.2,1-0.4c0.2,0.8,0.6,1.8,1.4,2.6c1.2,1.2,3,1.8,5.3,1.8c0.5,0,0.9,0,1.4-0.1c0,0.1,0,0.2,0,0.2
				C23.4,31.4,24.2,32.8,24.7,33.5z"/>
		</g>
		<g>
			<path class="st0" d="M15,24.2c-0.5,0.2-1,0.4-1,0.4c-0.8,0.2-1.7,0.1-2.3-0.2c-0.1,0-0.2-0.1-0.3-0.1c-0.3-0.2-0.8-0.7-0.9-1.6
				l0,0c-0.1-0.7-0.3-1.4-0.6-1.9c-0.1-0.1-0.2-0.2-0.3-0.3c0.5-0.1,1.2-0.6,2.3-1.9c0,0-0.5,0.3-1.1,0.5c0.2-0.2,0.4-0.5,0.4-0.9
				c0-0.2,0.3-1-0.1-1.9c0.3-0.1,0.6-0.1,0.9-0.1c0.5,0,1,0.1,1.5,0.2c0,0,0,0,0.1,0c-2.3-1.6-4.4,0-4.4,0L8,17.1
				c0,0-0.8,0.5-1.7,0.8C6,18,5.7,18.1,5.4,18.1c-1.1-0.3-0.5-1.8-0.4-1.8c-0.7,0.8-0.7,1.3-0.6,1.7c-0.1-0.1-0.2-0.1-0.3-0.2
				c-0.1-0.1-0.3-0.5-0.3-1.1C3.9,16,4.2,14.5,6.4,13l1.7-0.3l0,0l0,0c0.1,0,0.1,0.1,0.2,0.2c0.2,0.3,0,0.9-0.1,1.2L8,14.5l0.6-0.1
				c1-0.1,1.7-0.4,2-1c0.2-0.3,0.2-0.5,0.3-0.7c1.7,0.4,2.8,1.4,3.4,2.8l0,0c0,0,1.4,2.7,0.7,7.3C15,23,14.9,23.5,15,24.2z"/>
		</g>
		<g>
			<path class="st0" d="M10.5,17.9L10.5,17.9c-0.2,0.9-1,1.1-1,1.1c-0.1,0-0.4,0.1-0.6,0.1C9,18.8,9.1,18.6,9,18.3
				c0-0.3-0.2-0.5-0.3-0.7l0.9-0.7c0,0,0.3-0.2,0.8-0.4C10.8,17.2,10.6,17.9,10.5,17.9z"/>
		</g>
		<g>
			<path class="st0" d="M4.7,13.3c-0.3,0.3-0.6,0.6-0.8,0.9l-0.4-0.9c0.1,0,0.3,0.1,0.6,0.1C4.3,13.4,4.5,13.4,4.7,13.3z"/>
		</g>
		<g>
			<g>
				<g>
					<path class="st1" d="M4.5,11.2c0.1-0.1,0.3-0.3,0.4-0.6c0,0,0.6-1.3,0.9-1.8c0,0,0.3-0.6,0.1-1.1c0.7-0.2,1.4-0.3,1.7-0.3
						c0.1,0,5.3-0.5,7.4,2.3c1,1.4,1,3.4,0.1,5.9c0-0.1-0.1-0.2-0.1-0.2c-1.8-4.1-6.9-3.6-6.9-3.6l-2.7,0.5
						c-0.2-0.1-0.7-0.4-0.8-0.8C4.5,11.4,4.5,11.3,4.5,11.2z M6.3,18.9L6.3,18.9C6.3,18.9,6.3,18.8,6.3,18.9
						C6.3,18.8,6.3,18.8,6.3,18.9C6.3,18.8,6.3,18.8,6.3,18.9z M2.6,10.5c0.3,0.4,0.7,0.9,1.1,0.9h0.1c0,0.1,0,0.3,0.1,0.4
						c0.1,0.4,0.3,0.7,0.5,0.9c-0.4,0.1-0.7,0-0.7,0l0,0c-0.3-0.1-0.5-0.2-0.5-0.2C3.1,12.3,2.3,11.8,2.6,10.5z"/>
				</g>
			</g>
			<g>
				<path class="st2" d="M15.1,15.9c0,0-0.6-5.2-5.4-5c0,0-2.4-0.3-4.9,1.4L5,12.7L8.8,12l1.1,0.1l0.8,0.2l0.8,0.3l0.6,0.2l0.7,0.5
					l0.9,0.9L15.1,15.9z"/>
			</g>
			<g>
				<path class="st2" d="M2.2,10.9c0,0,1.1,1.6,1.9,1.4l0.4,0.4c0,0-2.1,0.5-2.4-0.6S2.2,10.9,2.2,10.9z"/>
			</g>
			<g>
				<path class="st3" d="M6.3,18.8L6.3,18.8L6.3,18.8C6.2,18.7,6.2,18.7,6.3,18.8C6.3,18.7,6.3,18.8,6.3,18.8z M13.6,1.5
					c0.7-0.3,1.4-0.3,2.3,0.1c0,0,0.6,0.4,1,0.9c-1.8-0.5-3.3-0.4-4.3-0.2C12.8,2,13.1,1.7,13.6,1.5z M14,5.2
					c-1.8,1.2-3.1,1.5-3.9,1.5c-0.3,0-0.5-0.1-0.8-0.1l0,0l0,0c-0.6,0-1.2,0-1.5,0c0.1-0.5,0.7-1.9,3.6-3h0.1
					c0.1-0.1,3.1-1.8,7.4,0.5L19,4.2l0.7-0.5c0,0,2.8-1.9,4.7-0.2l0,0c0,0,1.4,1.1,1,2.8c-0.2,0.8-0.4,1.4-0.7,1.8l-0.2,0.3l0.3,0.3
					L25,8.9c2,2.6,2.4,5.1,2.4,5.2c1.2,7.2-2.9,13.1-3.2,13.5L24,27.9c-1.8,0.5-5.9,1.1-7.9-2.5l0,0c-0.4-1.2-0.3-2.3-0.3-2.3
					c0.4-3,0-5.1-0.3-6.4c1.3-3.2,1.3-5.7,0-7.4c-0.2-0.3-0.4-0.5-0.7-0.7c0.4-0.5,0.6-1,0.6-1.6c0-0.5-0.2-0.9-0.5-1.2L14,5.2"/>
			</g>
			<g>
				<path class="st4" d="M15.1,16.6c0,0,1.7,0.3,1.8,5.3l0.3,1.7c0,0,0.5,3.5,4.3,3.5c0,0,2.7,0,3.7-0.5l-0.8,1.6c0,0-5.4,1.7-7.7-1
					c0,0-1.7-1.8-1.6-3.3l0.3-2.6l-0.1-1.8L15.1,16.6z"/>
			</g>
			<g>
				<path class="st4" d="M23.7,8.1c0,0,2-1.7,0.9-4c0,0-0.9-1.4-2.1-1.4L24.3,3l0.9,0.8l0.4,0.9l0.3,0.9l-0.3,1.5l-0.4,1v0.5
					l1.7,2.2l0.8,2.4v1.5C27.7,14.8,26.8,11.2,23.7,8.1z"/>
			</g>
			<g>
				<path class="st5" d="M9.2,24.9C8.7,25.2,8,25.2,7,24.8l0,0c0,0-1.1-0.3-2.8-1.8l0,0c0,0-0.5-0.4-1-0.6c1-0.1,1.9,0,2.5,0
					l0.4,0.1C6.6,22.4,9,23,9.9,23c0,0.1,0,0.2,0,0.3C9.9,23.3,9.9,24.4,9.2,24.9z M8.5,20.4c0,0,0.6,0.2,0.9,0.7
					c0.2,0.3,0.4,0.9,0.4,1.4c-0.6,0-2-0.2-3.3-0.5L6,21.9c-0.4,0-2.7-0.3-4.4,0.3l0,0l0,0c-0.5,0.2-0.8,0.6-1.1,0.9
					c0-0.3-0.2-1.2-0.1-1.9c0,0,0.4-2.2,2.9-3.2l0,0c0.5,0.4,1.2,0.6,1.9,0.6c0.3,0,0.6,0,0.9-0.1C6.4,19.5,7.9,20.1,8.5,20.4z"/>
			</g>
			<g>
				<path class="st6" d="M12,15.9c2.1,0,2.3,1.7,2.3,1.7s0.2,2.5-2.2,2.8c0,0,0.5,0.6,1.7,0.2c0,0-0.3,1.4-1.5,1.7
					c0,0,0.6,0.6,1.8,0.3c0,0-1,2.3-3.2,1.7c0,0-0.8-0.2-0.8-0.5c0.1-0.4,0.1-0.6,0.1-0.7c0-0.9-0.2-1.7-0.6-2.4
					c-0.1-0.1-0.2-0.2-0.3-0.3l1.2-1.3c0.2-0.2,0.4-0.5,0.4-0.9c0-0.2,0.2-1-0.1-1.9C10.8,16.3,10.4,15.9,12,15.9z"/>
			</g>
			<g>
				<polygon class="st7" points="5.4,24 6.2,24.8 8,25.1 8.7,25.2 9.9,27 10.3,29.2 10.3,31.7 8.8,33.1 7.3,33.1 5.9,32.7 4.8,31.8 
					4.3,30.6 4.1,28.8 5.2,27 5.4,25.5 				"/>
			</g>
			<g>
				<path class="st8" d="M8.1,32.8c2-2.3-1-7.6-1.1-7.6l1.4-0.1c0.1,0.2,3.3,4.9,0.9,7.6l0,0c0,0-0.9,0.8-2.3,0.8"/>
			</g>
			<g>
				<path class="st9" d="M23.4,29.3c-0.1,2.1,1.3,3.7,1.8,4.5c-2.2,0.3-4.5-1-4.5-1l-0.3-0.2l-0.2,0.2c-0.7,0.8-1,2.1-1.1,2.7
					c-1.2-0.1-3.1-1.3-3.3-1.4L15.7,34h-0.1c-1.5,0.6-2.6,2.5-3.2,3.1c-1-0.2-2.5-1.3-3-1.7l-0.1-0.1H9.1c-0.1,0-2.1,0.6-3.4,2.4
					c-0.9-0.4-3.6-2-2.5-5.9c0,0-0.8,3.7,2.7,4.5c0,0,2.8-2.2,4.1-2.3c0,0,1.6,1.6,2.1,1.6c0,0,2-2.7,3.5-3.3c0,0,2,1.3,2.8,1.2
					c0,0,0.6-2,1.6-2.6c0,0,2.5,1.2,2.8,1.1C22.8,32.3,23.4,29.6,23.4,29.3"/>
			</g>
			<g>
				<path class="st10" d="M12.1,3.2L11.4,3c0-0.3,0.6-1.7,1.8-2.3c0.9-0.4,1.9-0.4,3.1,0.2c0.1,0,1.2,0.6,1.6,2l-0.7,0.2
					c-0.3-1-1.2-1.5-1.2-1.5c-0.9-0.4-1.7-0.5-2.4-0.2C12.5,1.9,12.1,3.2,12.1,3.2z"/>
			</g>
			<g>
				<path class="st10" d="M24.6,6c0,0-0.1-1.5-1.5-1.8c-0.7-0.1-1.1-0.1-2,0.3c-0.5,0.3-0.8,0.6-0.8,0.6S23.2,4.1,24.6,6z"/>
			</g>
			<g>
				<path class="st10" d="M6,38.5l-0.3-0.1c0,0-4.5-1.5-3-6.8c0-0.2,0.3-1.5,1.6-3.5c0.1-0.2,1-2.2,0.9-3.8L6,24.2
					c0.1,1.9-0.9,4.1-1,4.2l0,0c-1.3,2-1.5,3.3-1.5,3.3l0,0c-1.2,3.9,1.3,5.4,2.2,5.8c1.2-1.9,3.3-2.4,3.4-2.4h0.2l0.1,0.1
					c0.5,0.4,2,1.5,3,1.7c0.6-0.7,1.7-2.5,3.2-3.1h0.1l0.1,0.1c0.2,0.1,2.1,1.3,3.3,1.4c0.1-0.6,0.4-1.9,1.1-2.7l0.2-0.2l0.3,0.2
					c0,0,1.8,1.3,4.1,1c-0.6-0.8-1.5-2.3-1.3-4.5l0.8,0.1c-0.2,2.7,1.6,4.4,1.6,4.4l0.5,0.5l-0.7,0.2c-2.3,0.6-4.2-0.4-5-0.8
					c-0.5,0.8-0.8,2-0.9,2.5l-0.1,0.4h-0.3c-1.3,0.1-3.1-1-3.7-1.3c-0.8,0.3-2,1.8-2.8,2.7L12.8,38h-0.2c-1.2-0.2-2.9-1.4-3.4-1.8
					c-0.5,0.1-2,0.8-2.9,2.3L6,38.5z"/>
			</g>
			<g>
				<g>
					<path class="st10" d="M20.4,13.6h1.5c0.4,0,0.6-0.2,0.6-0.6v-0.7h-0.3V13c0,0.2-0.1,0.3-0.4,0.3h-1.4c-0.3,0-0.4-0.1-0.4-0.3
						v-0.7h-0.3V13C19.8,13.4,20,13.6,20.4,13.6"/>
				</g>
				<g>
					<path class="st10" d="M21.9,13.7h-1.5c-0.5,0-0.7-0.3-0.7-0.7v-0.8h0.5V13c0,0.2,0,0.2,0.3,0.2h1.4c0.3,0,0.3-0.1,0.3-0.2v-0.8
						h0.5V13C22.7,13.5,22.4,13.7,21.9,13.7z M19.8,12.4V13c0,0.3,0.2,0.5,0.5,0.5h1.5c0.4,0,0.5-0.2,0.5-0.5v-0.6h-0.1V13
						c0,0.4-0.3,0.4-0.5,0.4h-1.4c-0.3,0-0.5-0.1-0.5-0.4V12.4L19.8,12.4z"/>
				</g>
			</g>
			<g>
				<g>
					<polygon class="st10" points="20.1,15.3 22.6,15.3 22.6,15.1 20.1,15.1 20.1,14.6 22.6,14.6 22.6,14.3 19.8,14.3 19.8,15.8 
						20.1,15.8 					"/>
				</g>
				<g>
					<path class="st10" d="M20.2,15.9h-0.5v-1.7h3v0.5h-2.5V15h2.5v0.5h-2.5V15.9z M19.8,15.7H20v-0.4h2.5v-0.1H20v-0.7h2.5v-0.1
						h-2.6v1.3H19.8z"/>
				</g>
			</g>
			<g>
				<path class="st10" d="M22,21c-0.1,0-0.3,0.2-0.3,0.5S21.9,22,22,22s0.3-0.2,0.3-0.5S22.1,21,22,21z"/>
			</g>
			<g>
				<path class="st10" d="M21.8,24.2c-1,0-1.8-1.2-1.8-2.7s0.8-2.7,1.8-2.7s1.8,1.2,1.8,2.7C23.6,23.1,22.8,24.2,21.8,24.2z
					 M21.8,19.6c-0.5,0-1,0.8-1,1.9s0.5,1.9,1,1.9s1-0.8,1-1.9S22.3,19.6,21.8,19.6z"/>
			</g>
			<g>
				<path class="st10" d="M10.1,23.1"/>
			</g>
			<g>
				<path class="st10" d="M7.7,33.8c-0.4,0-0.9-0.1-1.4-0.3c-0.1,0-2.1-1-2.4-2.7c0-0.1-0.2-1.3,0.7-3.3l0.7,0.3
					c-0.8,1.9-0.6,2.9-0.6,2.9c0.2,1.3,1.9,2.1,1.9,2.1c1.6,0.6,2.7-0.3,2.9-0.4c2-2.4-1-6.9-1-7L9.1,25c0.1,0.2,3.3,5.1,0.9,7.9
					l0,0C10,33,9.1,33.8,7.7,33.8z"/>
			</g>
			<g>
				<path class="st10" d="M9.1,29.2"/>
			</g>
			<g>
				<path class="st10" d="M9,20.4c0,0,0.9,0.5,2.9-1.9c0,0-2.2,1.2-3.3,1.1"/>
			</g>
			<g>
				<path class="st10" d="M4.7,18.3c0,0-1-0.7,0.3-2.1c0,0-0.7,1.5,0.4,1.8"/>
			</g>
			<g>
				<path class="st10" d="M10,23.2c0,0-0.1,1.4,1.8,1.3c0,0-1.2-0.3-1.4-2"/>
			</g>
			<g>
				<path class="st10" d="M7.3,25.3c0,0,0.3,0.3-0.8,1.8c0,0,0.2-1.7-0.6-2.3"/>
			</g>
			<g>
				<path class="st10" d="M4.1,13.4c-0.3,0-0.6-0.1-0.7-0.1C3,13.2,2.7,13,2.7,12.9c-0.5-0.4-1.4-1.5-0.6-3.4l0.7,0.3
					c-0.7,1.7,0.3,2.5,0.3,2.5s0.2,0.2,0.5,0.2l0,0c0,0,0.6,0.2,1.1-0.1L5.2,13C4.8,13.3,4.4,13.4,4.1,13.4z"/>
			</g>
			<g>
				<path class="st10" d="M21.9,29.4c-2.3,0-4.1-0.6-5.3-1.8C14.7,25.7,15,23,15,22.9c0.6-4.6-0.7-7.3-0.7-7.3l0,0
					c-0.6-1.5-1.9-2.5-3.6-2.9c-1.3-0.3-2.4-0.2-2.5-0.2l-2.8,0.6H5.3c0,0-1-0.4-1.4-1.3c-0.2-0.6-0.1-1.3,0.3-2l0.7,0.4
					c-0.3,0.5-0.4,1-0.2,1.4c0.2,0.5,0.6,0.7,0.8,0.8L8,11.8c0.1,0,5.2-0.6,7,3.5c0.1,0.2,1.5,3,0.8,7.7c0,0-0.1,1.1,0.3,2.3l0,0
					c2.5,4.6,8.6,2.3,8.7,2.3h0.1c0.1,0,0.5-0.1,0.8,0.2c0.2,0.1,0.2,0.4,0.2,0.6c0,0.3,0,0.5-2.2,0.9l0,0
					C23.1,29.3,22.5,29.4,21.9,29.4z"/>
			</g>
			<g>
				<path class="st10" d="M13.7,13.8"/>
			</g>
			<g>
				<path class="st10" d="M24.5,28.4L24,27.9l0.4-0.4c0.3-0.4,4.4-6.2,3.2-13.5c0,0-0.4-2.6-2.4-5.2l-0.1-0.2l-0.3-0.3L25,8
					c0.3-0.4,0.5-1,0.7-1.8c0.4-1.7-1-2.7-1-2.8l0,0c-1.9-1.7-4.6,0.2-4.7,0.2l-1,0.6l-0.2-0.1c-4.4-2.3-7.2-0.6-7.3-0.6h-0.1
					C7.9,5,7.8,6.8,7.8,6.8v0.3L7,7.1V6.8c0-0.2,0.2-2.3,4.1-3.9c0.4-0.2,3.4-1.8,7.9,0.4L19.4,3c0,0,0.8-0.6,1.9-0.8
					C22.7,1.8,24,2.1,25,2.9c0.2,0.1,1.8,1.4,1.3,3.5c-0.2,0.8-0.4,1.4-0.7,1.8l0.1,0.1c2.2,2.7,2.6,5.4,2.6,5.5
					c1.3,7.8-3.1,13.8-3.3,14.1l0,0L24.5,28.4z"/>
			</g>
			<g>
				<path class="st10" d="M15.4,16.7l-0.7-0.3c1.2-3,1.2-5.2,0.1-6.8c-2-2.7-7.3-2.2-7.3-2.2c-0.6,0.1-2.4,0.5-3,0.7L4.1,7.5
					C5,7.1,7.3,6.7,7.4,6.7c0.3,0,5.7-0.5,8,2.5C16.7,10.9,16.7,13.5,15.4,16.7z"/>
			</g>
			<g>
				<path class="st10" d="M21.3,25.1c-1.3,0-2.4-1.6-2.4-3.5c0-2,1.1-3.5,2.4-3.5s2.4,1.6,2.4,3.5C23.6,23.6,22.6,25.1,21.3,25.1z
					 M21.3,18.8c-0.9,0-1.6,1.3-1.6,2.8s0.7,2.8,1.6,2.8s1.6-1.3,1.6-2.8C22.9,20.1,22.1,18.8,21.3,18.8z"/>
			</g>
			<g>
				<path class="st10" d="M5.8,7.7C5.7,7.5,5.4,7.3,5,7.3c0,0-0.1,0-0.2,0c-0.3,0-1,0.1-1.7,0.4c0,0-0.7,0.3-1,0.8
					c-0.2,0.4-0.2,0.8,0,1.1c0,0,0.9,1.6,1.6,1.7H4c0.2,0,0.6-0.1,0.9-0.8c0,0,0.6-1.3,0.9-1.8C5.7,8.8,6,8.2,5.8,7.7z M2.8,9.1
					c0-0.6,1.1-0.8,1.1-0.8C5,8,5,8.6,5,8.6C3.6,8.1,2.8,9.1,2.8,9.1z"/>
			</g>
			<g>
				<path class="st10" d="M8,14.5l0.2-0.6c0.1-0.3,0.2-0.9,0.1-1.2c0-0.1-0.1-0.1-0.2-0.2l0.2-0.7c0.3,0.1,0.5,0.3,0.6,0.6
					c0.2,0.4,0.2,0.9,0.1,1.2c1.1-0.3,1.1-1,1.1-1.1h0.7c0,0,0,0.5-0.3,0.9c-0.4,0.6-1.1,0.9-2,1L8,14.5z"/>
			</g>
			<g>
				<path class="st10" d="M18.9,6.1c0,0-1.5-3-4.9-0.9c-3,2-4.7,1.5-4.7,1.4L9,7.2c0,0,0.3,0,0.9,0.1c0.4,0,1.1,0,1.8-0.1
					c0,0.4,0.8,0.6,1.2,0.6c0.5,0,0.8-0.3,0.8-0.7c0-0.2-0.1-0.4-0.3-0.5c0.2-0.1,0.5-0.3,0.8-0.4c0.2,0.2,0.3,0.5,0.4,0.8
					c0,0.4-0.2,0.8-0.6,1.2l0.5,0.5c0.6-0.6,0.9-1.2,0.8-1.8c0-0.5-0.2-0.9-0.5-1.2C15.5,5.4,17.1,4.8,18.9,6.1z M12.8,7.3
					c-0.1,0-0.2-0.1-0.2-0.2s0.1-0.2,0.2-0.2S13,7,13,7.1C13.1,7.2,12.9,7.3,12.8,7.3z"/>
			</g>
			<g>
				<path class="st10" d="M10.9,15.7l-0.6,0.4c0.6,0.8,0.3,1.7,0.3,1.8l0,0c-0.2,0.8-1,1-1,1C9.5,18.9,9.2,19,9,19
					c0-0.2,0.1-0.4,0-0.7c-0.1-0.7-0.6-1.1-0.6-1.1l-0.5,0.6c0,0,0,0,0.1,0.1c-0.1,0-0.1,0-0.2,0c-0.5,0-1.2,0.4-1.2,0.7
					c0,0.2,0.2,0.4,0.5,0.5l-0.3,0.5c0.4,0.2,1,0.3,1.4,0.3c0.7,0,1.3-0.1,1.3-0.1c0.1,0,1.3-0.3,1.6-1.6
					C11.3,17.9,11.6,16.8,10.9,15.7z M7.8,18.8c-0.1,0-0.2-0.1-0.2-0.2s0.1-0.2,0.2-0.2S8,18.5,8,18.6C8,18.7,7.9,18.8,7.8,18.8z"/>
			</g>
			<g>
				<path class="st10" d="M3.3,12.7c0,0-0.3,1.2,0.8,1.9"/>
				<path class="st10" d="M4,14.8c-1-0.6-1-1.6-0.9-2.1l0.4,0.1H3.3h0.2c0,0-0.3,1.1,0.7,1.7L4,14.8z"/>
			</g>
			<g>
				<path class="st11" d="M10,22.5c0,0,0-1.8-1.4-2.3c0,0-2.1-0.9-2.4-1.7c0,0,0.7,2,2.4,3c0,0-6.8-1.2-8,1.3H1l0.2-0.3h1.4l1.6,0.6
					l1.1,1.1l2.4,0.9l1.6-0.3L9.9,24l0.2-0.5L10,22.5z"/>
			</g>
			<g>
				<path class="st10" d="M0.9,23.7l-0.4-0.2c-0.1-0.1-0.8-0.6-0.4-2.5c0-0.1,0.4-2.6,3.4-3.7L3.7,18c-2.6,0.9-2.9,3-2.9,3.1
					c-0.1,0.7-0.1,1.1-0.1,1.3c1.4-1.3,4.8-0.9,5.2-0.9l0.4,0.1c1.4,0.3,3,0.6,3.4,0.6L9.9,23c-0.6,0.1-3.1-0.5-3.6-0.6l-0.4-0.1
					c-1.1-0.1-4.3-0.2-4.8,1L0.9,23.7z"/>
			</g>
			<g>
				<path class="st10" d="M8.4,25.6c-0.5,0-1-0.1-1.6-0.4c-0.2-0.1-1.3-0.4-2.9-1.8c-0.1-0.1-1.1-0.7-2-0.8v-0.8
					c1.2,0.1,2.4,0.9,2.4,0.9l0,0C6,24.2,7,24.5,7,24.5l0,0c0.9,0.4,1.6,0.4,2,0.1c0.6-0.4,0.7-1.5,0.7-1.5c0-0.8-0.2-1.5-0.5-2
					s-0.8-0.7-0.8-0.7c-0.7-0.3-2.3-1-2.2-2.2L7,18.4c0,0.3,0.2,0.8,1.7,1.4c0,0,0.8,0.3,1.2,1s0.6,1.5,0.6,2.4c0,0.1,0,1.5-1,2.2
					C9.2,25.5,8.8,25.6,8.4,25.6z"/>
			</g>
			<g>
				<path class="st10" d="M15.6,23.9c-0.1,0.3-1.6,0.8-1.6,0.8c-1.8,0.5-3.6-0.8-3.7-0.8l-0.5,0.6c0.1,0.1,1.5,1.1,3.3,1.1
					c0.3,0,0.7,0,1-0.1c0,0,1.3-0.5,1.4-0.7S15.6,23.9,15.6,23.9z"/>
			</g>
			<g>
				<path class="st10" d="M13.6,16.3c-0.5-0.1-1-0.2-1.5-0.2c-1.3,0-2.4,0.8-2.4,0.8l-1.2,0.9c0,0-0.9,0.6-1.9,0.9
					c-0.4,0.1-0.8,0.2-1.1,0.2c-0.7,0-1.3-0.2-1.8-0.6l0,0c0,0-0.6-0.7-0.5-1.7c0.2-1.3,0.7-2.8,2.8-4.1l1.2-0.1l-0.6,0.5
					c-2.3,1.5-2.6,3-2.7,3.7c-0.1,0.6,0.2,1,0.3,1.1c0.3,0.4,1.3,0.5,2.2,0.3C7.3,17.7,8,17.1,8,17.1l1.2-0.9
					C9.2,16.3,11.3,14.6,13.6,16.3z"/>
			</g>
		</g>
	</g>
	<g>
		<g>
			<path class="st0" d="M65.1,13.8c0,2.4-1.5,3.8-4,3.8h-9.4c-2.5,0-4-1.4-4-3.8V9.2h2v4.5c0,1.5,0.6,2,2.5,2h8.4
				c1.8,0,2.5-0.6,2.5-2V9.2h2V13.8z"/>
			<path class="st0" d="M71.8,15.1v2.3h-2V9.2h14c1.9,0,3.2,1.2,3.2,2.9c0,1.1-0.5,2-1.5,2.5l1.7,2.7H85L83.5,15L71.8,15.1
				L71.8,15.1z M83.9,13.4c0.7,0,1.1-0.4,1.1-1.3c0-0.8-0.4-1.2-1.1-1.2H71.8v2.5H83.9z"/>
			<path class="st0" d="M93.3,14.6c0,1,0.3,1.3,2.5,1.3h8.4c1.9,0,2.3-0.2,2.3-0.9c0-0.8-1.2-0.9-7.1-1c-5.5-0.1-8-0.1-8-2.4
				c0-1.7,0.7-2.6,3.8-2.6h9.7c2.6,0,3.6,1.1,3.6,2.9h-2.1c0-0.9-0.4-1.3-2.1-1.3h-8.5c-1.9,0-2.3,0.2-2.3,0.8c0,0.8,1.6,0.9,6.8,1
				c6.8,0.1,8.3,0.1,8.2,2.5c0,1.1-0.2,2.6-3.8,2.6h-9.6c-3.2,0-4-1-4-2.9H93.3z"/>
			<path class="st0" d="M125.3,9c3.1,0,4.7,1.5,4.7,4.3s-1.6,4.3-4.7,4.3h-8c-3.1,0-4.7-1.5-4.7-4.3s1.6-4.3,4.7-4.3H125.3z
				 M125,15.8c2,0,3-0.9,3-2.5s-1-2.5-3-2.5h-7.3c-2,0-3,0.9-3,2.5s1,2.5,3,2.5H125z"/>
		</g>
		<g>
			<path class="st0" d="M49.8,25.1h5.1v1.7h-5.1v3.1h-2v-8.1h7.8v1.7h-5.9v1.6H49.8z"/>
			<path class="st0" d="M59.3,27.5v2.3h-2v-8.1h14c1.9,0,3.2,1.2,3.2,2.9c0,1.1-0.5,2-1.5,2.5l1.7,2.7h-2.3L71,27.5H59.3z
				 M71.4,25.8c0.7,0,1.1-0.4,1.1-1.3c0-0.8-0.4-1.2-1.1-1.2H59.3v2.5H71.4z"/>
			<path class="st0" d="M78.2,28.4l-0.7,1.4h-2.1l4.2-8.1h2.2l4.3,8.1H84l-0.7-1.4H78.2z M80.8,23.6l-1.7,3.2h3.4L80.8,23.6z"/>
			<path class="st0" d="M104.8,29.8h-1.9l-13.5-6.2v6.2h-2v-8.1h1.9l13.5,6.2v-6.2h2V29.8z"/>
			<path class="st0" d="M111.4,21.5h1.5c3,0,4.5,1,4.5,3h-2.1c0-0.9-0.9-1.3-2.7-1.3h-0.8c-2,0-3,0.9-3,2.6s1,2.6,3,2.6h0.8
				c1.8,0,2.7-0.5,2.7-1.5h-4.1v-1.4h6.1v1.4c0,2.2-1.5,3.3-4.5,3.3h-1.5c-3.1,0-4.7-1.4-4.7-4.3S108.3,21.5,111.4,21.5z"/>
			<path class="st0" d="M125.1,21.5c3.1,0,4.7,1.4,4.7,4.3s-1.6,4.3-4.7,4.3h-1.5c-3.1,0-4.7-1.4-4.7-4.3s1.6-4.3,4.7-4.3H125.1z
				 M124.8,28.3c2,0,3-0.9,3-2.6s-1-2.6-3-2.6H124c-2,0-3,0.9-3,2.6s1,2.6,3,2.6H124.8z"/>
		</g>
	</g>
</g>
</svg>
