<?xml version="1.0" encoding="utf-8"?>
<!-- Generator: Adobe Illustrator 25.0.1, SVG Export Plug-In . SVG Version: 6.00 Build 0)  -->
<svg version="1.1" id="Layer_1" xmlns="http://www.w3.org/2000/svg" xmlns:xlink="http://www.w3.org/1999/xlink" x="0px" y="0px"
	 viewBox="0 0 110 106" style="enable-background:new 0 0 110 106;" xml:space="preserve">
<style type="text/css">
	.st0{fill-rule:evenodd;clip-rule:evenodd;fill:#E3E0D7;}
	.st1{filter:url(#Adobe_OpacityMaskFilter);}
	.st2{fill-rule:evenodd;clip-rule:evenodd;fill:#FFFFFF;}
	.st3{mask:url(#mask-2_1_);fill-rule:evenodd;clip-rule:evenodd;fill:#E3E0D7;}
</style>
<g id="Symbols">
	<g id="footer_x2F_regular" transform="translate(-160.000000, -67.000000)">
		<g id="Logo-Outline" transform="translate(160.000000, 67.000000)">
			<path id="Fill-1" class="st0" d="M74,30c0,0-0.2-2.5-2.8-2.9c-1.4-0.2-2-0.1-3.6,0.5c-1,0.5-1.6,1.1-1.6,1.1S71.4,26.9,74,30"/>
			<path id="Fill-3" class="st0" d="M67.2,76.7l-0.5-0.3l-0.4,0.4c-1.2,1.3-1.7,3.6-2,4.6c-2-0.1-5.5-2.2-5.8-2.4l-0.2-0.1L58.2,79
				c-2.6,1-4.6,4.2-5.6,5.4c-1.7-0.4-4.3-2.3-5.2-3l-0.2-0.2l-0.3,0.1c-0.2,0-3.8,1-6,4.2c-1.5-0.7-5.9-3.2-3.9-9.9l0-0.1
				c0,0,0.2-0.8,0.8-2.1c0,0.3,0,0.4,0,0.5c0.5,3,4,4.6,4.2,4.6c0.9,0.4,1.7,0.5,2.5,0.5c2.4,0,3.9-1.4,4-1.4l0.1-0.1
				c3.6-4.1,0.1-10.6-1.2-12.8c0.1,0,0.2-0.1,0.3-0.2c0.5-0.3,0.9-0.8,1.1-1.3c0.9,0.5,2.9,1.6,5.3,1.6c0.6,0,1.2-0.1,1.8-0.2
				c0,0,1-0.4,1.7-0.7c0.4,1.4,1.1,3,2.5,4.4c2.1,2.1,5.2,3.1,9.4,3.1c0.8,0,1.6,0,2.5-0.1c-0.1,3.4,1.4,5.9,2.4,7.1
				C70.4,78.9,67.3,76.7,67.2,76.7L67.2,76.7z M41.5,63.7c1.2,1.1,0.8,3.7,0.8,3.7c1.3-1.6,1.5-2.4,1.5-2.7c0.7,0.2,1.3,0.3,1.9,0.3
				c0.1,0,0.2,0,0.4,0c1,1.6,4.6,8,1.5,11.6c-0.2,0.2-2.3,1.8-5,0.7c0,0-3-1.3-3.4-3.6c0,0-0.2-1.5,0.8-4.2
				C40.4,68.4,41.4,66,41.5,63.7C41.5,63.7,41.5,63.7,41.5,63.7L41.5,63.7z M38.7,60.1c0,0-0.6-0.4-1.3-0.7c1.6-0.1,3.2-0.1,4,0
				l0.6,0.1c0.9,0.2,4.6,1,6.1,1c0,0.1,0,0.2,0,0.3c0,0,0,1.8-1.1,2.6c-0.8,0.5-2,0.4-3.5-0.2l-0.1,0C43.3,63.1,41.6,62.6,38.7,60.1
				L38.7,60.1z M32.4,59.7c-0.1-0.4-0.1-1.1,0.1-2.3c0,0,0.6-3.5,4.7-5.1l0.1,0c0.9,0.7,2,1,3.2,1c0.5,0,1-0.1,1.5-0.2
				c0.2,0.6,0.6,1.1,1.1,1.5l0,0c0,0,0,0,0,0c0.9,0.7,2,1.2,2.6,1.5c0,0,0.9,0.4,1.4,1.1c0.4,0.6,0.6,1.2,0.8,1.9
				c-0.9,0-3.4-0.5-5.6-1l-0.7-0.1C40.8,58.1,34.8,57.5,32.4,59.7L32.4,59.7z M37.3,43.9c0.2,0.1,0.6,0.1,1,0.1c0.3,0,0.6,0,1-0.1
				c-0.5,0.5-0.9,0.9-1.2,1.4C37.5,44.9,37.3,44.4,37.3,43.9L37.3,43.9z M35.6,39c0.5,0.7,1.2,1.4,1.9,1.5l0.1,0
				c0,0.2,0.1,0.5,0.2,0.7c0.2,0.6,0.6,1.1,1,1.4c-0.6,0.2-1.2-0.1-1.3-0.1c0,0-0.1,0-0.1,0c-0.5-0.1-0.8-0.4-0.9-0.4
				C36.5,42.2,35.1,41.2,35.6,39L35.6,39z M37.8,35.2c2.1-0.4,2.1,0.7,2.1,0.7c-2.6-1-4,0.7-4,0.7C35.9,35.7,37.8,35.2,37.8,35.2
				L37.8,35.2z M46.8,42.5c0.6,0,1.2,0.1,2,0.2c-0.1,0.4-0.4,1.3-1.9,1.6C47,43.8,47,43.1,46.8,42.5L46.8,42.5z M54.6,32.3
				c0.4-0.2,0.9-0.5,1.4-0.7c0.3,0.4,0.6,0.9,0.6,1.4c0,0.6-0.2,1.2-0.8,1.9c-0.4-0.3-0.8-0.5-1.3-0.7c0.3-0.2,0.6-0.6,0.6-0.9
				C55.1,32.8,54.9,32.5,54.6,32.3L54.6,32.3z M53.1,33.2c0-0.2,0.2-0.4,0.4-0.4c0.2,0,0.4,0.2,0.4,0.4c0,0.2-0.2,0.4-0.4,0.4
				C53.3,33.6,53.1,33.4,53.1,33.2L53.1,33.2z M39.5,39.2c0,0,1-2.3,1.6-3c0,0,0.5-1,0.2-1.8c1.2-0.3,2.4-0.5,3-0.6
				c0.1,0,9.2-0.8,12.8,3.8c1.8,2.3,1.9,5.6,0.4,9.9c-0.1-0.1-0.1-0.2-0.1-0.3c-3.1-7-12.2-6-12.2-6l-4.7,0.9
				c-0.3-0.2-1.1-0.6-1.4-1.4c-0.1-0.2-0.1-0.4-0.1-0.6C39,40,39.3,39.7,39.5,39.2L39.5,39.2z M45.1,52.9c0,0.2-0.2,0.4-0.4,0.4
				c-0.2,0-0.4-0.2-0.4-0.4c0-0.2,0.2-0.4,0.4-0.4C44.9,52.5,45.1,52.7,45.1,52.9L45.1,52.9z M49.3,49.3c0.6,1.3,0.2,2.4,0.2,2.5
				l0,0.1c-0.3,1.4-1.7,1.8-1.8,1.8c-0.2,0.1-0.6,0.1-1.1,0.2c0.2-0.5,0.3-0.9,0.2-1.4c-0.1-0.5-0.3-0.9-0.5-1.2l1.6-1.1
				C47.9,50,48.5,49.7,49.3,49.3L49.3,49.3z M51.5,63c-0.6-0.3-1.8-1-2.1-3.1c-0.1-1.2-0.5-2.3-1.1-3.3c-0.1-0.2-0.3-0.4-0.5-0.6
				c0.8-0.3,2.2-1,4-3.2c0,0-0.8,0.4-1.9,0.9c0.4-0.4,0.7-0.9,0.8-1.6c0.1-0.3,0.5-1.7-0.2-3.3c0.5-0.1,1-0.2,1.6-0.2
				c1,0,1.9,0.1,2.7,0.4c-4-2.8-7.7,0-7.7,0l-2.1,1.5c0,0-1.3,0.9-3,1.4C41.6,52,41,52,40.5,52c-2-0.5-0.8-3.1-0.8-3.1
				c-1.3,1.3-1.3,2.2-1,2.8c-0.2-0.1-0.4-0.2-0.5-0.4c-0.1-0.2-0.6-0.8-0.5-1.9c0.2-1.2,0.6-3.7,4.6-6.3l2.9-0.6c0,0,0,0,0,0
				c0.1,0.1,0.2,0.1,0.3,0.3c0.3,0.5,0.1,1.6-0.1,2.1l-0.4,1l1-0.1c1.7-0.2,2.9-0.7,3.6-1.7c0.3-0.4,0.4-0.8,0.4-1.1
				c2.9,0.8,4.9,2.4,6,4.8l0,0c0,0,2.4,4.6,1.3,12.5c0,0.1-0.1,1,0.1,2.3c-0.8,0.4-1.8,0.7-1.8,0.7C54.1,63.7,52.7,63.4,51.5,63
				L51.5,63z M51,27.3L51,27.3c0.3-0.2,5.3-3,13,0.9l0.4,0.2l1.4-0.9c0,0,4.9-3.2,8.2-0.3l0,0c0,0,2.4,1.8,1.8,4.7
				c-0.3,1.4-0.8,2.4-1.3,3.1l-0.3,0.4l0.6,0.6l0.2,0.3c3.6,4.4,4.3,8.8,4.3,8.8c2.1,12.4-5.1,22.4-5.5,23.1l-0.6,0.6
				c-3.1,0.8-10.4,1.9-13.9-4.3l0,0c-0.8-2.1-0.6-4-0.6-4c0.7-5.1,0.1-8.8-0.6-11c2.2-5.4,2.2-9.7-0.1-12.6
				c-0.4-0.5-0.8-0.9-1.2-1.3c0.8-0.9,1.1-1.8,1.1-2.7c-0.1-0.8-0.4-1.5-0.8-2c1.1-0.5,3.9-1.4,7.1,0.8c0,0-2.6-5.1-8.5-1.6
				c-3.1,2-5.5,2.5-6.8,2.6c-0.5-0.1-1-0.1-1.4-0.1c0,0,0,0,0,0l0,0c-1.1-0.1-2,0-2.6,0C44.9,31.7,46,29.3,51,27.3L51,27.3z
				 M54.8,23.6c1.2-0.5,2.5-0.4,4.1,0.4c0,0,0.9,0.5,1.5,1.4c-3.1-0.9-5.7-0.7-7.4-0.3C53.5,24.6,54.1,24,54.8,23.6L54.8,23.6z
				 M73.3,71.1c3-0.7,3.1-1,3.1-1.4c0-0.4-0.1-0.8-0.4-1c-0.2-0.2-0.5-0.3-0.7-0.3c1.8-2.6,7.3-11.9,5.3-23.4c0-0.2-0.7-4.8-4.6-9.4
				l-0.2-0.2c0.5-0.8,0.9-1.8,1.2-3.1c0.9-3.6-1.9-5.8-2.2-6c-1.7-1.5-3.9-1.9-6.5-1.2c-1.9,0.5-3.3,1.4-3.3,1.4l-0.7,0.5
				c-0.7-0.3-1.3-0.6-2-0.8c-0.7-2.1-2.6-3.1-2.7-3.2c-2-1-3.9-1.1-5.4-0.3c-1.6,0.8-2.5,2.3-2.9,3.2c-0.4,0.2-0.7,0.3-0.8,0.4
				c-6.5,2.6-7.1,6-7.1,6.6c-1,0.2-3,0.6-4.3,1c-0.6,0.1-1.6,0.2-2.8,0.7c-0.1,0-1.3,0.4-1.7,1.4c-0.2,0.5-0.2,1.1,0.1,1.7
				c-1.3,3.1,0.2,5.1,1.1,5.7c0,0,0.1,0.1,0.3,0.2c0,0.8,0.2,2,1.3,2.8c-0.5,1-0.8,2-0.9,3c-0.1,0.8,0,1.4,0.2,1.9
				c-4.7,1.9-5.4,5.9-5.4,6c-0.7,3.3,0.5,4.1,0.8,4.3l0.6,0.3l0.3-0.6c0.3-0.5,0.9-0.9,1.7-1.2c1.6,0.2,3.1,1.1,3.3,1.3
				c0.9,0.7,1.6,1.3,2.3,1.7c0.1,1.8-0.6,3.9-1.1,5.2l0,0c-0.1,0.3-0.2,0.5-0.3,0.8c-0.1,0.2-0.1,0.3-0.1,0.3
				c-2.2,3.4-2.8,5.7-2.8,6c-2.7,9,5.1,11.6,5.2,11.6l0.5,0.2l0.3-0.5c1.5-2.6,4.1-3.7,5.1-3.9c0.9,0.6,3.9,2.8,5.9,3.1l0.4,0.1
				l0.2-0.3c1.4-1.7,3.5-4.2,4.9-4.7c1.1,0.5,4.2,2.4,6.5,2.2l0.5,0l0.2-0.7c0.1-0.8,0.7-2.9,1.6-4.2c1.4,0.7,4.7,2.4,8.7,1.4
				l1.2-0.3l-0.9-0.8C76,78.3,73.1,75.5,73.3,71.1L73.3,71.1z"/>
			<path id="Fill-5" class="st0" d="M66,43h2c0.6,0,1-0.4,1-0.9V41h-0.7v1.1c0,0.2-0.1,0.3-0.4,0.3h-1.8c-0.4,0-0.4-0.1-0.4-0.3V41
				H65v1.1C65,42.7,65.4,43,66,43"/>
			<polygon id="Fill-7" class="st0" points="65.7,45.5 69,45.5 69,45 65.7,45 65.7,44.6 69,44.6 69,44 65,44 65,46 65.7,46 			"/>
			<path id="Fill-9" class="st0" d="M68.5,58c0.2,0,0.5-0.4,0.5-1c0-0.6-0.3-1-0.5-1c-0.2,0-0.5,0.4-0.5,1C68,57.6,68.3,58,68.5,58"
				/>
			<path id="Fill-11" class="st0" d="M67.5,53.3c0.3,0,0.5,0.1,0.7,0.2c-1.7,0.2-3,2.1-3,4.5c0,2.4,1.4,4.4,3.1,4.5
				c-0.3,0.1-0.6,0.2-0.9,0.2c-1.7,0-3.1-2.2-3.1-4.7C64.4,55.5,65.8,53.3,67.5,53.3 M70.5,58c0,1.9-1,3.2-1.9,3.2
				c-0.9,0-1.9-1.3-1.9-3.2c0-1.9,1-3.2,1.9-3.2C69.5,54.7,70.5,56.1,70.5,58 M67.5,64c2.5,0,4.5-2.6,4.5-6c0-3.4-2-6-4.5-6
				S63,54.6,63,58C63,61.4,65,64,67.5,64"/>
			<path id="Fill-13" class="st0" d="M9.3,29.3c1.6,0.7,2.1,2.1,1.4,3.7l-2.8,6.2c-0.7,1.6-2.1,2.2-3.8,1.6L1,39.4l0.6-1.3l3.1,1.3
				c1,0.4,1.6,0.2,2.1-1.1l2.5-5.5c0.5-1.2,0.3-1.8-0.7-2.2l-3.1-1.3L6.1,28L9.3,29.3z"/>
			<path id="Fill-15" class="st0" d="M19.2,17c0.3-0.4,0.3-0.9-0.1-1.3c-0.4-0.4-0.8-0.4-1.2,0l-5.9,6.8l1.3,1.3L19.2,17z
				 M14.2,24.7l1.2,1.2l-1,1.1L10,22.9l6.9-7.9c1-1.1,2.2-1.2,3.1-0.3c0.6,0.6,0.9,1.3,0.6,2.2l2.3,0.4l-1.1,1.3l-1.9-0.3L14.2,24.7
				z"/>
			<path id="Fill-17" class="st0" d="M24.9,13.9c0.4,0.6,0.8,0.8,2.2-0.2l0.2-0.1c1.2-0.8,1.4-1.1,1.1-1.6c-0.3-0.5-1.1-0.1-2.4,0.6
				c-1.5,0.8-2.8,1.3-3.6,0c-0.7-1.1-0.4-2.1,1.5-3.4l0.8-0.5c1.7-1.1,2.9-0.9,3.7,0.4L26.9,10c-0.4-0.7-0.9-0.7-2,0l-0.2,0.1
				c-1.3,0.9-1.4,1.1-1.2,1.6c0.3,0.5,1.2,0.1,2.2-0.5c1.9-1,2.9-1.5,3.8-0.1c0.6,1,0.4,2.1-1.5,3.4l-0.8,0.5
				c-2.1,1.4-3,1.2-3.9-0.2L24.9,13.9z"/>
			<path id="Fill-19" class="st0" d="M37.6,7.9c1.5-0.6,2-1.6,1.5-2.9c-0.5-1.4-1.5-1.7-3.1-1.1l-0.6,0.2c-1.5,0.6-2,1.6-1.5,2.9
				c0.5,1.3,1.5,1.7,3.1,1.1L37.6,7.9z M35.8,2.4c2.4-0.9,4-0.3,4.9,2c0.8,2.2,0,3.8-2.4,4.8l-1.2,0.5c-2.4,0.9-4,0.3-4.9-2
				c-0.8-2.2,0-3.8,2.4-4.8L35.8,2.4z"/>
			<polygon id="Fill-21" class="st0" points="50.6,3.4 54.4,3.2 54.5,4.8 50.7,5 50.8,7.9 49.3,8 49,0.4 54.9,0 55,1.6 50.6,1.9 			
				"/>
			<path id="Fill-23" class="st0" d="M69.3,5.4c0.5,0.1,0.9-0.2,1-0.8c0.1-0.6-0.1-1-0.7-1.1l-9.2-1.9l-0.4,1.9L69.3,5.4z M59.9,4.8
				l-0.4,1.7L58,6.2L59.3,0L70,2.2c1.5,0.3,2.2,1.4,2,2.7c-0.2,0.9-0.7,1.5-1.6,1.7L71.3,9l-1.7-0.4l-0.8-2L59.9,4.8z"/>
			<path id="Fill-25" class="st0" d="M78.3,6.8l-2.5,1.6l2.6,1.2L78.3,6.8z M74.6,9.2l-1,0.7L72,9.2L78.2,5l1.6,0.8L80,13l-1.6-0.7
				l0-1.2L74.6,9.2z"/>
			<polygon id="Fill-27" class="st0" points="92.8,23 91.7,22 87.3,12 84.1,15.4 83,14.4 87.2,10 88.3,11 92.7,21 95.9,17.6 
				97,18.6 			"/>
			<path id="Fill-29" class="st0" d="M102.5,26.1l0.6,1.1c1.2,2.1,1.2,3.6-0.1,4.4l-0.9-1.5c0.6-0.4,0.5-1.2-0.3-2.5l-0.3-0.6
				c-0.8-1.4-1.8-1.7-3-1c-1.1,0.7-1.3,1.8-0.5,3.2l0.3,0.6c0.7,1.3,1.5,1.7,2.2,1.3l-1.7-2.9l1-0.6l2.5,4.3l-1,0.6
				c-1.4,0.9-2.8,0.4-4-1.7l-0.6-1.1c-1.3-2.2-1-3.9,0.9-5.1C99.6,23.4,101.2,23.9,102.5,26.1"/>
			<path id="Fill-31" class="st0" d="M102,38.5c0.5,1.5,1.5,2.1,2.9,1.6c1.4-0.5,1.8-1.5,1.3-3l-0.2-0.6c-0.5-1.5-1.5-2.1-2.9-1.6
				c-1.4,0.5-1.8,1.5-1.3,3L102,38.5z M107.7,37c0.9,2.4,0.1,4-2.2,4.8c-2.3,0.7-3.9-0.1-4.7-2.5l-0.4-1.2c-0.9-2.4-0.1-4,2.2-4.8
				c2.3-0.7,3.9,0.1,4.7,2.5L107.7,37z"/>
			<path id="Fill-33" class="st0" d="M99.7,76.7c-1.7-0.7-2.1-2.1-1.4-3.7l2.8-6.2c0.7-1.6,2.1-2.2,3.8-1.6l3.1,1.3l-0.6,1.3
				l-3.1-1.3c-1-0.4-1.6-0.2-2.1,1.1l-2.5,5.5c-0.5,1.2-0.3,1.8,0.7,2.2l3.1,1.3l-0.6,1.3L99.7,76.7z"/>
			<path id="Fill-35" class="st0" d="M90.8,89c-0.3,0.4-0.3,0.9,0.1,1.3c0.4,0.4,0.9,0.4,1.2,0l5.9-6.8l-1.3-1.3L90.8,89z
				 M95.8,81.3l-1.2-1.2l1-1.1l4.4,4.1l-6.9,7.9c-1,1.1-2.2,1.2-3.1,0.3c-0.6-0.6-0.9-1.3-0.6-2.2L87,88.9l1.1-1.3l1.9,0.3
				L95.8,81.3z"/>
			<path id="Fill-37" class="st0" d="M84.1,92.1c-0.4-0.6-0.8-0.8-2.2,0.2l-0.2,0.1c-1.2,0.8-1.4,1.1-1.1,1.6
				c0.3,0.5,1.1,0.1,2.4-0.6c1.5-0.8,2.8-1.3,3.6,0c0.7,1.1,0.4,2.1-1.5,3.4l-0.8,0.5c-1.7,1.1-2.9,0.9-3.7-0.4l1.3-0.9
				c0.4,0.7,0.9,0.7,2,0l0.2-0.1c1.3-0.9,1.4-1.1,1.2-1.6c-0.3-0.5-1.2-0.1-2.2,0.5c-1.9,1-2.9,1.5-3.8,0.1c-0.6-1-0.4-2.1,1.5-3.4
				l0.8-0.5c2.1-1.4,3-1.2,3.9,0.2L84.1,92.1z"/>
			<path id="Fill-39" class="st0" d="M72.4,97.1c-1.5,0.6-2,1.6-1.5,2.9c0.5,1.4,1.5,1.7,3.1,1.1l0.6-0.2c1.5-0.6,2-1.6,1.5-2.9
				c-0.5-1.3-1.5-1.7-3.1-1.1L72.4,97.1z M74.2,102.6c-2.4,0.9-4,0.3-4.9-2c-0.8-2.2,0-3.8,2.4-4.8l1.2-0.5c2.4-0.9,4-0.3,4.9,2
				c0.8,2.2,0,3.8-2.4,4.8L74.2,102.6z"/>
			<polygon id="Fill-41" class="st0" points="58.4,102.6 54.5,102.8 54.5,101.2 58.3,101 58.2,98.1 59.7,98 60,105.6 54.1,106 
				54,104.4 58.4,104.1 			"/>
			<path id="Fill-43" class="st0" d="M40.7,100.6c-0.5-0.1-0.9,0.2-1,0.8c-0.1,0.6,0.1,1,0.7,1.1l9.2,1.9l0.4-1.9L40.7,100.6z
				 M50.1,101.2l0.4-1.7l1.5,0.3l-1.3,6.2L40,103.8c-1.5-0.3-2.2-1.4-2-2.7c0.2-0.9,0.7-1.5,1.6-1.7L38.7,97l1.7,0.4l0.8,2
				L50.1,101.2z"/>
			<path id="Fill-45" class="st0" d="M29.7,99.2l2.5-1.6l-2.6-1.2L29.7,99.2z M33.4,96.8l1-0.7l1.6,0.7l-6.2,4.2l-1.6-0.8L28,93
				l1.6,0.7l0,1.2L33.4,96.8z"/>
			<polygon id="Fill-47" class="st0" points="17.2,82 18.3,83 22.7,93 25.9,89.6 27,90.6 22.8,95 21.7,94 17.3,84 14.1,87.4 
				13,86.4 			"/>
			<path id="Fill-49" class="st0" d="M7.5,79.9l-0.6-1.1c-1.2-2.1-1.2-3.6,0.1-4.4l0.9,1.5c-0.6,0.4-0.5,1.2,0.3,2.5l0.3,0.6
				c0.8,1.4,1.8,1.7,3,1c1.1-0.7,1.3-1.8,0.5-3.2l-0.3-0.6c-0.7-1.3-1.5-1.7-2.2-1.3l1.7,2.9l-1,0.6l-2.5-4.3l1-0.6
				c1.4-0.9,2.8-0.4,4,1.7l0.6,1.1c1.3,2.2,1,3.9-0.9,5.1C10.4,82.6,8.8,82.1,7.5,79.9"/>
			<path id="Fill-51" class="st0" d="M8,67.5c-0.5-1.5-1.5-2.1-2.9-1.6c-1.4,0.5-1.8,1.5-1.3,3L4,69.5c0.5,1.5,1.5,2.1,2.9,1.6
				c1.4-0.5,1.8-1.5,1.3-3L8,67.5z M2.3,69c-0.9-2.4-0.1-4,2.2-4.8c2.3-0.7,3.9,0.1,4.7,2.5L9.7,68c0.9,2.4,0.1,4-2.2,4.8
				c-2.3,0.7-3.9-0.1-4.7-2.5L2.3,69z"/>
			<g id="Group-55" transform="translate(101.000000, 46.000000)">
				<g id="Clip-54">
				</g>
				<defs>
					<filter id="Adobe_OpacityMaskFilter" filterUnits="userSpaceOnUse" x="0.4" y="0.5" width="8.6" height="9.2">
						<feColorMatrix  type="matrix" values="1 0 0 0 0  0 1 0 0 0  0 0 1 0 0  0 0 0 1 0"/>
					</filter>
				</defs>
				<mask maskUnits="userSpaceOnUse" x="0.4" y="0.5" width="8.6" height="9.2" id="mask-2_1_">
					<g class="st1">
						<polygon id="path-1_1_" class="st2" points="0.4,0.5 9,0.5 9,9.7 0.4,9.7 						"/>
					</g>
				</mask>
				<path id="Fill-53" class="st3" d="M8.8,7L7.8,6.4l0.9-0.5c0.1-0.1,0.2-0.2,0.1-0.4C8.7,5.4,8.5,5.4,8.4,5.5L7.2,6.1l-1.9-1
					l1.9-1l1.2,0.7c0,0,0.1,0,0.1,0c0.1,0,0.2,0,0.3-0.1c0.1-0.1,0-0.3-0.1-0.4L7.8,3.8l1.1-0.6C8.9,3.1,9,2.9,8.9,2.8
					C8.8,2.7,8.7,2.6,8.5,2.7L7.4,3.3l0-1C7.4,2.1,7.3,2,7.1,2C7,2,6.8,2.1,6.8,2.3l0,1.3L5,4.6V2.5l1.2-0.6
					c0.1-0.1,0.2-0.2,0.1-0.4C6.2,1.4,6,1.3,5.9,1.4L5,1.9V0.8c0-0.2-0.1-0.3-0.3-0.3c-0.2,0-0.3,0.1-0.3,0.3v1.1L3.5,1.4
					c-0.1-0.1-0.3,0-0.4,0.1C3,1.7,3,1.8,3.2,1.9l1.2,0.6v2.1l-1.9-1l0-1.3C2.5,2.1,2.4,2,2.2,2h0C2,2,1.9,2.1,1.9,2.3l0,1l-1-0.6
					c-0.1-0.1-0.3,0-0.4,0.1c-0.1,0.1,0,0.3,0.1,0.4l1,0.6L0.7,4.3C0.5,4.3,0.5,4.5,0.6,4.6c0.1,0.1,0.1,0.1,0.2,0.1
					c0.1,0,0.1,0,0.2,0l1.2-0.7l1.9,1l-1.9,1L1,5.5c-0.1-0.1-0.3,0-0.4,0.1c-0.1,0.1,0,0.3,0.1,0.4l0.9,0.5L0.6,7
					C0.4,7.1,0.4,7.3,0.4,7.4c0.1,0.1,0.1,0.1,0.2,0.1c0,0,0.1,0,0.1,0l1-0.6l0,1c0,0.2,0.1,0.3,0.3,0.3h0c0.2,0,0.3-0.1,0.3-0.3
					l0-1.3l1.9-1v2.1L3.2,8.3C3,8.4,3,8.5,3.1,8.7c0.1,0.1,0.1,0.1,0.2,0.1c0.1,0,0.1,0,0.1,0l0.9-0.5v1.2c0,0.2,0.1,0.3,0.3,0.3
					C4.8,9.7,5,9.6,5,9.4V8.3l0.9,0.5c0,0,0.1,0,0.1,0c0.1,0,0.2,0,0.3-0.1c0.1-0.1,0-0.3-0.1-0.4L5,7.7V5.6l1.9,1l0,1.3
					c0,0.2,0.1,0.3,0.3,0.3c0.2,0,0.3-0.1,0.3-0.3l0-1l1.1,0.6c0,0,0.1,0,0.2,0c0.1,0,0.2,0,0.2-0.1C9,7.3,8.9,7.1,8.8,7"/>
			</g>
			<path id="Fill-56" class="st0" d="M7.9,53.1l-1-0.6l0.8-0.5c0.1-0.1,0.2-0.3,0.1-0.4c-0.1-0.1-0.2-0.2-0.4-0.1l-1.1,0.7L4.6,51
				l1.8-1.1l1.1,0.7c0,0,0.1,0,0.1,0c0.1,0,0.2,0,0.2-0.1c0.1-0.1,0-0.3-0.1-0.4l-0.8-0.5l1-0.6C8,48.8,8,48.7,8,48.5
				c-0.1-0.1-0.2-0.2-0.4-0.1l-1,0.6l0-1.1c0-0.2-0.1-0.3-0.3-0.3c-0.2,0-0.3,0.1-0.3,0.3l0,1.4l-1.8,1.1v-2.3l1.1-0.7
				c0.1-0.1,0.2-0.3,0.1-0.4C5.4,47,5.3,46.9,5.1,47l-0.8,0.5v-1.2C4.3,46.1,4.2,46,4,46c-0.2,0-0.3,0.1-0.3,0.3v1.2L2.9,47
				c-0.1-0.1-0.3,0-0.4,0.1c-0.1,0.1,0,0.3,0.1,0.4l1.1,0.7v2.2l-1.8-1.1l0-1.4c0-0.2-0.1-0.3-0.3-0.3h0c-0.1,0-0.3,0.1-0.3,0.3
				l0,1.1l-1-0.6c-0.1-0.1-0.3,0-0.4,0.1c-0.1,0.1,0,0.3,0.1,0.4l1,0.6l-0.9,0.6c-0.1,0.1-0.2,0.3-0.1,0.4c0.1,0.1,0.1,0.1,0.2,0.1
				c0.1,0,0.1,0,0.1,0l1.1-0.7L3.5,51l-1.8,1.1l-1.1-0.7c-0.1-0.1-0.3,0-0.4,0.1c-0.1,0.1,0,0.3,0.1,0.4l0.9,0.6l-1,0.6
				C0,53.2,0,53.4,0,53.5c0.1,0.1,0.1,0.2,0.2,0.2c0,0,0.1,0,0.1,0l1-0.6l0,1.1c0,0.2,0.1,0.3,0.3,0.3h0c0.2,0,0.3-0.1,0.3-0.3
				l0-1.4l1.8-1.1v2.2l-1.1,0.7c-0.1,0.1-0.2,0.3-0.1,0.4C2.5,55,2.6,55,2.7,55c0,0,0.1,0,0.1,0l0.9-0.5v1.3C3.7,55.9,3.8,56,4,56
				c0.2,0,0.3-0.1,0.3-0.3v-1.2L5.1,55c0,0,0.1,0,0.1,0c0.1,0,0.2,0,0.2-0.2c0.1-0.1,0-0.3-0.1-0.4l-1.1-0.7v-2.3L6,52.6L6,54
				c0,0.2,0.1,0.3,0.3,0.3c0.2,0,0.3-0.1,0.3-0.3l0-1.1l1,0.6c0,0,0.1,0,0.1,0c0.1,0,0.2,0,0.2-0.1C8,53.3,8,53.2,7.9,53.1"/>
		</g>
	</g>
</g>
</svg>
