<?xml version="1.0" encoding="utf-8"?>
<!-- Generator: Adobe Illustrator 24.1.0, SVG Export Plug-In . SVG Version: 6.00 Build 0)  -->
<svg version="1.1" id="Camada_1" xmlns="http://www.w3.org/2000/svg" xmlns:xlink="http://www.w3.org/1999/xlink" x="0px" y="0px"
	 viewBox="0 0 44 44" style="enable-background:new 0 0 44 44;" xml:space="preserve">
<style type="text/css">
	.st0{fill:none;}
	.st1{fill:none;stroke:#FFFFFF;}
	.st2{fill-rule:evenodd;clip-rule:evenodd;fill:#FFFFFF;}
</style>
<g id="instagram_x2F_-outline-round-copy">
	<g id="instagram">
		<rect id="Rectangle" class="st0" width="44" height="44"/>
		<circle id="Oval" class="st1" cx="22" cy="22" r="21.5"/>
		<path id="Shape" class="st2" d="M22,13c2.9,0,3.3,0,4.4,0.1c1.1,0,1.7,0.2,2,0.4c0.5,0.2,0.9,0.4,1.3,0.8c0.4,0.4,0.6,0.8,0.8,1.3
			c0.2,0.4,0.3,1,0.4,2C31,18.7,31,19.1,31,22s0,3.3-0.1,4.4c0,1.1-0.2,1.7-0.4,2c-0.2,0.5-0.4,0.9-0.8,1.3
			c-0.4,0.4-0.8,0.6-1.3,0.8c-0.4,0.2-1,0.3-2,0.4C25.3,31,24.9,31,22,31s-3.3,0-4.4-0.1c-1.1,0-1.7-0.2-2-0.4
			c-0.5-0.2-0.9-0.4-1.3-0.8c-0.4-0.4-0.6-0.8-0.8-1.3c-0.2-0.4-0.3-1-0.4-2C13,25.3,13,24.9,13,22s0-3.3,0.1-4.4
			c0-1.1,0.2-1.7,0.4-2c0.2-0.5,0.4-0.9,0.8-1.3c0.4-0.4,0.8-0.6,1.3-0.8c0.4-0.2,1-0.3,2-0.4C18.7,13,19.1,13,22,13 M23.1,11
			c2,0,2.4,0,3.4,0.1c1.2,0.1,2,0.2,2.7,0.5c0.7,0.3,1.3,0.7,1.9,1.3c0.6,0.6,1,1.2,1.3,1.9c0.3,0.7,0.5,1.5,0.5,2.7
			C33,18.6,33,19,33,22s0,3.4-0.1,4.5c-0.1,1.2-0.2,2-0.5,2.7c-0.3,0.7-0.7,1.3-1.3,1.9c-0.6,0.6-1.2,1-1.9,1.3
			c-0.7,0.3-1.5,0.5-2.7,0.5C25.4,33,25,33,22,33s-3.4,0-4.5-0.1c-1.2-0.1-2-0.2-2.7-0.5c-0.7-0.3-1.3-0.7-1.9-1.3
			c-0.6-0.6-1-1.2-1.3-1.9c-0.3-0.7-0.5-1.5-0.5-2.7c0-1-0.1-1.4-0.1-3.4v-2.2c0-2,0-2.4,0.1-3.4c0.1-1.2,0.2-2,0.5-2.7
			c0.3-0.7,0.7-1.3,1.3-1.9c0.6-0.6,1.2-1,1.9-1.3c0.7-0.3,1.5-0.5,2.7-0.5c1,0,1.4-0.1,3.4-0.1H23.1z M22,16.4
			c-3.1,0-5.7,2.5-5.7,5.7s2.5,5.7,5.7,5.7s5.7-2.5,5.7-5.7S25.1,16.4,22,16.4z M22,18.4c2,0,3.7,1.6,3.7,3.7S24,25.7,22,25.7
			S18.4,24,18.4,22S20,18.4,22,18.4z M27.8,14.8c-0.7,0-1.3,0.6-1.3,1.3c0,0.7,0.6,1.3,1.3,1.3s1.3-0.6,1.3-1.3
			C29.2,15.4,28.6,14.8,27.8,14.8z"/>
	</g>
</g>
</svg>
